<?xml version="1.0" encoding="utf-8"?>
<!-- Generator: Adobe Illustrator 24.1.2, SVG Export Plug-In . SVG Version: 6.00 Build 0)  -->
<svg version="1.1" id="Layer_1" xmlns="http://www.w3.org/2000/svg" xmlns:xlink="http://www.w3.org/1999/xlink" x="0px" y="0px"
	 viewBox="0 0 512 512" style="enable-background:new 0 0 512 512;" xml:space="preserve">
<style type="text/css">
	.st0{fill-rule:evenodd;clip-rule:evenodd;fill:#8C96A1;}
	.st1{fill:#8C96A1;}
	.st2{fill-rule:evenodd;clip-rule:evenodd;fill:url(#SVGID_1_);}
</style>
<g transform="translate(0 2)">
	<path class="st0" d="M106.1,251.3l-36.6,82h23.9l7.1-17.4h36.8l7.1,17.4h23.9l-36.7-82H106.1z M119.1,270.6l6.2,15.6l6.2,15.6
		l-12.4,0l-12.4,0l6.2-15.6L119.1,270.6L119.1,270.6z M283.7,251.3l-36.6,82H271l7.1-17.4h36.8l7.1,17.4H346l-36.7-82
		C309.3,251.3,283.7,251.3,283.7,251.3z M296.7,270.6l6.2,15.6l6.2,15.6l-12.4,0l-12.4,0l6.2-15.6L296.7,270.6L296.7,270.6z
		 M352.3,251h27.2l17.4,26.2l18.4-26.2h26.8l-32.3,39.8l34.4,42.8H417l-19.7-27.9l-19.4,27.9h-29l35-42.4L352.3,251z"/>
	<path class="st1" d="M237.2,216.3l-32.6,32l11.2,10.1l10.6-10.7l1.2,0V309c0,7.8-6.3,14-14,14h-11.1c-7.8,0-14-6.3-14-14v-6.5
		h-21.7v8.1c0,14,11.3,25.3,25.3,25.3h28.8c14,0,25.3-11.3,25.3-25.3v-62.7l0.8,0l12.4,10.6l9.7-10.1L237.2,216.3L237.2,216.3z"/>
	<path class="st1" d="M177.5,295.7l32.6-32l-11.2-10.1l-10.6,10.7l-1.2,0V203c0-7.8,6.3-14,14-14h11.1c7.8,0,14,6.3,14,14v6.5h21.7
		v-8.1c0-14-11.3-25.3-25.3-25.3h-28.8c-14,0-25.3,11.3-25.3,25.3v62.7l-0.8,0l-12.4-10.6l-9.7,10.1L177.5,295.7L177.5,295.7z"/>
</g>
<linearGradient id="SVGID_1_" gradientUnits="userSpaceOnUse" x1="256.8232" y1="339.9223" x2="256.8232" y2="179.3401" gradientTransform="matrix(1 0 0 -1 0 514.75)">
	<stop  offset="0" style="stop-color:#1A6DFF"/>
	<stop  offset="1" style="stop-color:#C822FF"/>
</linearGradient>
<path class="st2" d="M193.8,176.1c-14,0-25.3,11.3-25.3,25.3v62.7l-0.8,0l-12.4-10.6l-9.7,10.1l32,32l32.6-32l-11.2-10.1l-10.6,10.7
	l-1.2,0V203c0-7.8,6.3-14,14-14h11.1c7.8,0,14,6.3,14,14v6.5h21.7v-8.1c0-14-11.3-25.3-25.3-25.3H193.8z M237.2,216.3l-32.6,32
	l11.2,10.1l10.6-10.7l1.2,0V309c0,7.8-6.3,14-14,14h-11.1c-7.8,0-14-6.3-14-14v-6.5h-21.7v8.1c0,14,11.3,25.3,25.3,25.3h28.8
	c14,0,25.3-11.3,25.3-25.3v-62.7l0.8,0l12.4,10.6l9.7-10.1L237.2,216.3L237.2,216.3z M352.3,251l31.6,40.1l-35,42.4h29l19.4-27.9
	l19.7,27.9h27.2l-34.4-42.8l32.3-39.8h-26.8l-18.4,26.2L379.5,251H352.3z M106.1,251.3l-36.6,82h23.9l7.1-17.4h36.8l7.1,17.4h23.9
	l-36.7-82H106.1z M283.7,251.3l-36.6,82H271l7.1-17.4h36.8l7.1,17.4H346l-36.7-82C309.3,251.3,283.7,251.3,283.7,251.3z
	 M119.1,270.6l6.2,15.6l6.2,15.6l-12.4,0l-12.4,0l6.2-15.6L119.1,270.6L119.1,270.6z M296.7,270.6l6.2,15.6l6.2,15.6l-12.4,0
	l-12.4,0l6.2-15.6L296.7,270.6L296.7,270.6z"/>
</svg>
