<svg id="科技-线框" xmlns="http://www.w3.org/2000/svg" xmlns:xlink="http://www.w3.org/1999/xlink" viewBox="0 0 1802 1035.05"><defs><style>.cls-1{fill:url(#linear-gradient);}</style><linearGradient id="linear-gradient" x1="1901" y1="1000" x2="99" y2="1000" gradientUnits="userSpaceOnUse"><stop offset="0" stop-color="#561ad9"/><stop offset="0" stop-color="#662cdd"/><stop offset="0.25" stop-color="#c394f2"/><stop offset="0.5" stop-color="#8836bf"/><stop offset="0.75" stop-color="#934ea6"/><stop offset="1" stop-color="#f1c2f2"/></linearGradient></defs><path class="cls-1" d="M1901,1038.3h-6.87V907.7h3.92V867.43h-3.92v-385l-1654.71,3h-2L99,623.82v893.71H1749.84l142.85-142.85,1.44-1.44V1088.39H1901Zm-155.23,469.41H461.49c-9.08-7.94-36.5-31.84-37.37-31.84H197.28l-48.61-48.61V1218.58l-39.85-39.85V627.89L241.47,495.24l1294.67-2.31c11.14,9.72,33.14,28.83,33.92,28.83h226.85l48.61,48.61V779.05l38.79,38.79v49.59h-13.75V907.7h13.75v151.23h-11.79v110h11.79v200.26Z" transform="translate(-99 -482.47)"/></svg>