<?xml version="1.0" encoding="utf-8"?>
<!-- Generator: Adobe Illustrator 24.1.2, SVG Export Plug-In . SVG Version: 6.00 Build 0)  -->
<svg version="1.1" id="Layer_1" xmlns="http://www.w3.org/2000/svg" xmlns:xlink="http://www.w3.org/1999/xlink" x="0px" y="0px"
	 viewBox="0 0 512 512" style="enable-background:new 0 0 512 512;" xml:space="preserve">
<style type="text/css">
	.st0{fill:url(#SVGID_1_);}
	.st1{fill:url(#SVGID_2_);}
	.st2{fill:url(#SVGID_3_);}
	.st3{fill:url(#SVGID_4_);}
</style>
<linearGradient id="SVGID_1_" gradientUnits="userSpaceOnUse" x1="375.2834" y1="275.5871" x2="175.649" y2="275.5871">
	<stop  offset="0" style="stop-color:#484294"/>
	<stop  offset="0.25" style="stop-color:#B093C5"/>
	<stop  offset="0.5" style="stop-color:#6E4494"/>
	<stop  offset="0.75" style="stop-color:#8F4F9A"/>
	<stop  offset="1" style="stop-color:#E4C1DD"/>
</linearGradient>
<path class="st0" d="M375.3,257.3c0-0.6-0.1-1.2-0.3-1.8c-3.4-18.9-14.4-31.7-32.1-38.4c-34.3-12.9-68.7-25.5-103.2-38.1
	c-8.6-3.1-17.4-4.2-26.4-2.3c-21.9,4.6-45.8,30.4-35,61.2c12.2,34.6,24.8,69,36.5,103.7c6.7,20.1,24.8,34.5,48.1,33.9
	c19.3-0.5,36.3-12.1,43-30.2c2.1-5.7,2.9-11.6,3.6-17.5c1.1-9.2,6.1-14.8,15.1-16.4c2.7-0.5,5.4-0.8,8.1-1.1
	c25.4-2.7,42.6-21.6,42.6-47C375.3,261.3,375.3,259.3,375.3,257.3z M328.2,276.6c-8.4,0.7-16.5,2.2-24,6.2
	c-16.1,8.4-25.4,21.5-26.9,39.8c-0.2,3-0.7,5.9-1.3,8.9c-1.5,7.1-6.4,11-12.9,11.8c-8.6,0.5-14-2.6-16.5-9.8
	c-9-25.7-18-51.5-26.9-77.2c-3.3-9.6-6.6-19.2-10.1-28.8c-2.3-6.3-1.3-11.8,3.2-16.6c4.6-4.8,10.4-5,16.2-2.8
	c35,12.9,70,25.8,105,38.7c6.2,2.3,9.2,7.3,9.2,14.7C343.2,270.3,337.8,275.8,328.2,276.6z"/>
<linearGradient id="SVGID_2_" gradientUnits="userSpaceOnUse" x1="146.1351" y1="179.3348" x2="146.1351" y2="70.6755" gradientTransform="matrix(0.4905 -0.4905 0.4995 0.4995 10.8743 153.3952)">
	<stop  offset="0" style="stop-color:#484294"/>
	<stop  offset="0.25" style="stop-color:#B093C5"/>
	<stop  offset="0.5" style="stop-color:#6E4494"/>
	<stop  offset="0.75" style="stop-color:#8F4F9A"/>
	<stop  offset="1" style="stop-color:#E4C1DD"/>
</linearGradient>
<path class="st1" d="M172.1,171.3L172.1,171.3c-6,6-15.7,6-21.7,0l-32.5-32.5c-6-6-6-15.7,0-21.7l0,0c6-6,15.7-6,21.7,0l32.5,32.5
	C178.1,155.6,178.1,165.3,172.1,171.3z"/>
<linearGradient id="SVGID_3_" gradientUnits="userSpaceOnUse" x1="240.6449" y1="206.1294" x2="240.6449" y2="97.4701" gradientTransform="matrix(0.6936 0 0 0.5162 57.0914 44.9588)">
	<stop  offset="0" style="stop-color:#484294"/>
	<stop  offset="0.25" style="stop-color:#B093C5"/>
	<stop  offset="0.5" style="stop-color:#6E4494"/>
	<stop  offset="0.75" style="stop-color:#8F4F9A"/>
	<stop  offset="1" style="stop-color:#E4C1DD"/>
</linearGradient>
<path class="st2" d="M224,151.4L224,151.4c-8.5,0-15.4-6.9-15.4-15.4v-25.4c0-8.5,6.9-15.4,15.4-15.4h0c8.5,0,15.4,6.9,15.4,15.4
	V136C239.4,144.5,232.5,151.4,224,151.4z"/>
<linearGradient id="SVGID_4_" gradientUnits="userSpaceOnUse" x1="104.342" y1="386.0579" x2="104.342" y2="277.3985" gradientTransform="matrix(-1.222665e-08 -0.6936 0.5162 -3.901806e-08 -46.9815 296.5817)">
	<stop  offset="0" style="stop-color:#484294"/>
	<stop  offset="0.25" style="stop-color:#B093C5"/>
	<stop  offset="0.5" style="stop-color:#6E4494"/>
	<stop  offset="0.75" style="stop-color:#8F4F9A"/>
	<stop  offset="1" style="stop-color:#E4C1DD"/>
</linearGradient>
<path class="st3" d="M152.3,224.2L152.3,224.2c0,8.5-6.9,15.4-15.4,15.4h-25.4c-8.5,0-15.4-6.9-15.4-15.4v0
	c0-8.5,6.9-15.4,15.4-15.4h25.4C145.4,208.8,152.3,215.7,152.3,224.2z"/>
</svg>
