<svg id="Layer_1" data-name="Layer 1" xmlns="http://www.w3.org/2000/svg" xmlns:xlink="http://www.w3.org/1999/xlink" viewBox="0 0 72 72"><defs><style>.cls-1{fill:url(#New_Gradient_Swatch);}.cls-2{fill:url(#New_Gradient_Swatch-2);}.cls-3{fill:url(#New_Gradient_Swatch-3);}.cls-4{fill:url(#New_Gradient_Swatch-4);}</style><linearGradient id="New_Gradient_Swatch" x1="16.5" y1="45" x2="73.5" y2="45" gradientUnits="userSpaceOnUse"><stop offset="0" stop-color="#561ad9"/><stop offset="0.25" stop-color="#c394f2"/><stop offset="0.5" stop-color="#8836bf"/><stop offset="0.75" stop-color="#934ea6"/><stop offset="1" stop-color="#f1c2f2"/></linearGradient><linearGradient id="New_Gradient_Swatch-2" x1="3.26" y1="10.5" x2="17.74" y2="10.5" gradientTransform="translate(10.5 -4.35) rotate(45)" xlink:href="#New_Gradient_Swatch"/><linearGradient id="New_Gradient_Swatch-3" x1="21" y1="6" x2="27" y2="6" xlink:href="#New_Gradient_Swatch"/><linearGradient id="New_Gradient_Swatch-4" x1="0" y1="24" x2="12" y2="24" xlink:href="#New_Gradient_Swatch"/></defs><path class="cls-1" d="M17.18,30.57,31,67.2a9.59,9.59,0,0,0,9,6.3,9.42,9.42,0,0,0,1.82-.17,9.58,9.58,0,0,0,8-9.55v-14h14A9.72,9.72,0,0,0,67.2,31L30.57,17.18A10.4,10.4,0,0,0,17.18,30.57Zm6.67-2.52a3.21,3.21,0,0,1,.75-3.46,3.32,3.32,0,0,1,2.28-1,3.58,3.58,0,0,1,1.18.22l36.63,13.8a2.59,2.59,0,0,1-.91,5H46.25a3.57,3.57,0,0,0-3.56,3.56V63.77a2.59,2.59,0,0,1-5,.92L23.85,28.05Z" transform="translate(-1.5 -1.5)"/><rect class="cls-2" x="7.5" y="1.5" width="6" height="18" rx="3" transform="translate(-5.85 9) rotate(-45)"/><rect class="cls-3" x="21" width="6" height="12" rx="2"/><rect class="cls-4" y="21" width="12" height="6" rx="2"/></svg>