<?xml version="1.0" encoding="utf-8"?>
<!-- Generator: Adobe Illustrator 24.1.2, SVG Export Plug-In . SVG Version: 6.00 Build 0)  -->
<svg version="1.1" id="Layer_1" xmlns="http://www.w3.org/2000/svg" xmlns:xlink="http://www.w3.org/1999/xlink" x="0px" y="0px"
	 viewBox="0 0 60 60" style="enable-background:new 0 0 60 60;" xml:space="preserve">
<style type="text/css">
	.st0{fill:url(#SVGID_1_);}
</style>
<g id="surface1">
	
		<linearGradient id="SVGID_1_" gradientUnits="userSpaceOnUse" x1="2938.4963" y1="-1369.9802" x2="2738.8025" y2="-1369.9802" gradientTransform="matrix(0.1758 0 0 -0.1758 -468.9806 -210.8165)">
		<stop  offset="0" style="stop-color:#484294"/>
		<stop  offset="0.25" style="stop-color:#B093C5"/>
		<stop  offset="0.5" style="stop-color:#6E4494"/>
		<stop  offset="0.75" style="stop-color:#8F4F9A"/>
		<stop  offset="1" style="stop-color:#E4C1DD"/>
	</linearGradient>
	<path class="st0" d="M47.5,26.8c0-0.1,0-0.2-0.1-0.3c-0.6-3.3-2.5-5.6-5.6-6.8c-6-2.3-12.1-4.5-18.1-6.7c-1.5-0.5-3.1-0.7-4.6-0.4
		c-3.8,0.8-8,5.3-6.2,10.8c2.1,6.1,4.4,12.1,6.4,18.2c1.2,3.5,4.4,6.1,8.5,6c3.4-0.1,6.4-2.1,7.6-5.3c0.4-1,0.5-2,0.6-3.1
		c0.2-1.6,1.1-2.6,2.7-2.9c0.5-0.1,0.9-0.1,1.4-0.2c4.5-0.5,7.5-3.8,7.5-8.3C47.5,27.5,47.5,27.1,47.5,26.8z M39.3,30.2
		c-1.5,0.1-2.9,0.4-4.2,1.1c-2.8,1.5-4.5,3.8-4.7,7c0,0.5-0.1,1-0.2,1.6c-0.3,1.2-1.1,1.9-2.3,2.1c-1.5,0.1-2.5-0.5-2.9-1.7
		c-1.6-4.5-3.2-9.1-4.7-13.6c-0.6-1.7-1.2-3.4-1.8-5.1c-0.4-1.1-0.2-2.1,0.6-2.9c0.8-0.8,1.8-0.9,2.8-0.5c6.2,2.3,12.3,4.5,18.5,6.8
		c1.1,0.4,1.6,1.3,1.6,2.6C41.9,29.1,41,30,39.3,30.2z"/>
</g>
</svg>
