<?xml version="1.0" encoding="utf-8"?>
<!-- Generator: Adobe Illustrator 24.1.2, SVG Export Plug-In . SVG Version: 6.00 Build 0)  -->
<svg version="1.1" id="Layer_1" xmlns="http://www.w3.org/2000/svg" xmlns:xlink="http://www.w3.org/1999/xlink" x="0px" y="0px"
	 viewBox="0 0 60 60" style="enable-background:new 0 0 60 60;" xml:space="preserve">
<style type="text/css">
	.st0{fill:url(#SVGID_1_);}
	.st1{fill:url(#SVGID_2_);}
	.st2{fill:url(#SVGID_3_);}
	.st3{fill:url(#SVGID_4_);}
</style>
<g id="surface1">
	
		<linearGradient id="SVGID_1_" gradientUnits="userSpaceOnUse" x1="2978.2607" y1="-1410.2614" x2="2778.5669" y2="-1410.2614" gradientTransform="matrix(0.1758 0 0 -0.1758 -468.9806 -210.8165)">
		<stop  offset="0" style="stop-color:#484294"/>
		<stop  offset="0.25" style="stop-color:#B093C5"/>
		<stop  offset="0.5" style="stop-color:#6E4494"/>
		<stop  offset="0.75" style="stop-color:#8F4F9A"/>
		<stop  offset="1" style="stop-color:#E4C1DD"/>
	</linearGradient>
	<path class="st0" d="M54.5,33.9c0-0.1,0-0.2-0.1-0.3c-0.6-3.3-2.5-5.6-5.6-6.8c-6-2.3-12.1-4.5-18.1-6.7c-1.5-0.5-3.1-0.7-4.6-0.4
		c-3.8,0.8-8,5.3-6.2,10.8c2.1,6.1,4.4,12.1,6.4,18.2c1.2,3.5,4.4,6.1,8.5,6c3.4-0.1,6.4-2.1,7.6-5.3c0.4-1,0.5-2,0.6-3.1
		c0.2-1.6,1.1-2.6,2.7-2.9c0.5-0.1,0.9-0.1,1.4-0.2c4.5-0.5,7.5-3.8,7.5-8.3C54.5,34.6,54.5,34.2,54.5,33.9z M46.3,37.3
		c-1.5,0.1-2.9,0.4-4.2,1.1c-2.8,1.5-4.5,3.8-4.7,7c0,0.5-0.1,1-0.2,1.6c-0.3,1.2-1.1,1.9-2.3,2.1c-1.5,0.1-2.5-0.5-2.9-1.7
		c-1.6-4.5-3.2-9.1-4.7-13.6c-0.6-1.7-1.2-3.4-1.8-5.1c-0.4-1.1-0.2-2.1,0.6-2.9c0.8-0.8,1.8-0.9,2.8-0.5c6.2,2.3,12.3,4.5,18.5,6.8
		c1.1,0.4,1.6,1.3,1.6,2.6C48.9,36.1,47.9,37.1,46.3,37.3z"/>
	
		<linearGradient id="SVGID_2_" gradientUnits="userSpaceOnUse" x1="1316.4537" y1="-4490.5225" x2="1316.4537" y2="-4381.8633" gradientTransform="matrix(8.622070e-02 -8.622070e-02 -8.780270e-02 -8.780270e-02 -488.9662 -262.0329)">
		<stop  offset="0" style="stop-color:#484294"/>
		<stop  offset="0.25" style="stop-color:#B093C5"/>
		<stop  offset="0.5" style="stop-color:#6E4494"/>
		<stop  offset="0.75" style="stop-color:#8F4F9A"/>
		<stop  offset="1" style="stop-color:#E4C1DD"/>
	</linearGradient>
	<path class="st1" d="M18.8,18.7c-1.1,1.1-2.8,1.1-3.8,0L9.3,13c-1.1-1.1-1.1-2.8,0-3.8s2.8-1.1,3.8,0l5.7,5.7
		C19.9,16,19.9,17.7,18.8,18.7z"/>
	
		<linearGradient id="SVGID_3_" gradientUnits="userSpaceOnUse" x1="4244.7969" y1="-2714.4575" x2="4244.7969" y2="-2605.7983" gradientTransform="matrix(0.1219 0 0 -9.073830e-02 -489.5908 -231.0627)">
		<stop  offset="0" style="stop-color:#484294"/>
		<stop  offset="0.25" style="stop-color:#B093C5"/>
		<stop  offset="0.5" style="stop-color:#6E4494"/>
		<stop  offset="0.75" style="stop-color:#8F4F9A"/>
		<stop  offset="1" style="stop-color:#E4C1DD"/>
	</linearGradient>
	<path class="st2" d="M27.9,15.2c-1.5,0-2.7-1.2-2.7-2.7V8.1c0-1.5,1.2-2.7,2.7-2.7s2.7,1.2,2.7,2.7v4.5
		C30.7,14,29.4,15.2,27.9,15.2z"/>
	
		<linearGradient id="SVGID_4_" gradientUnits="userSpaceOnUse" x1="-2577.7102" y1="-6199.8726" x2="-2577.7102" y2="-6091.2129" gradientTransform="matrix(-2.149220e-09 -0.1219 -9.073830e-02 6.858640e-09 -547.2241 -286.2401)">
		<stop  offset="0" style="stop-color:#484294"/>
		<stop  offset="0.25" style="stop-color:#B093C5"/>
		<stop  offset="0.5" style="stop-color:#6E4494"/>
		<stop  offset="0.75" style="stop-color:#8F4F9A"/>
		<stop  offset="1" style="stop-color:#E4C1DD"/>
	</linearGradient>
	<path class="st3" d="M15.3,28c0,1.5-1.2,2.7-2.7,2.7H8.2c-1.5,0-2.7-1.2-2.7-2.7s1.2-2.7,2.7-2.7h4.5C14.1,25.3,15.3,26.5,15.3,28z
		"/>
</g>
</svg>
