<svg id="Layer_1" data-name="Layer 1" xmlns="http://www.w3.org/2000/svg" xmlns:xlink="http://www.w3.org/1999/xlink" viewBox="0 0 72 72"><defs><style>.cls-1{fill:url(#linear-gradient);}</style><linearGradient id="linear-gradient" x1="73.5" y1="37.5" x2="1.5" y2="37.5" gradientUnits="userSpaceOnUse"><stop offset="0" stop-color="#561ad9"/><stop offset="0.25" stop-color="#c394f2"/><stop offset="0.5" stop-color="#8836bf"/><stop offset="0.75" stop-color="#934ea6"/><stop offset="1" stop-color="#f1c2f2"/></linearGradient></defs><path class="cls-1" d="M2.36,19.27,19.82,65.55a12.09,12.09,0,0,0,11.39,8,13,13,0,0,0,2.3-.21A12.11,12.11,0,0,0,43.58,61.22V43.54H61.22a12.27,12.27,0,0,0,4.32-23.76L19.27,2.36A13.12,13.12,0,0,0,2.36,19.27Zm8.43-3.18a4.06,4.06,0,0,1,.94-4.37,4.18,4.18,0,0,1,2.88-1.23,4.26,4.26,0,0,1,1.49.29L62.38,28.2a3.27,3.27,0,0,1-1.16,6.33H39.08a4.51,4.51,0,0,0-4.5,4.5V61.22a3.28,3.28,0,0,1-6.34,1.15L10.79,16.09Z" transform="translate(-1.5 -1.5)"/></svg>