<?xml version="1.0" encoding="utf-8"?>
<!-- Generator: Adobe Illustrator 24.1.2, SVG Export Plug-In . SVG Version: 6.00 Build 0)  -->
<svg version="1.1" id="Layer_1" xmlns="http://www.w3.org/2000/svg" xmlns:xlink="http://www.w3.org/1999/xlink" x="0px" y="0px"
	 viewBox="0 0 512 512" style="enable-background:new 0 0 512 512;" xml:space="preserve">
<style type="text/css">
	.st0{fill:url(#SVGID_1_);}
	.st1{fill:url(#SVGID_2_);}
</style>
<g>
	
		<linearGradient id="SVGID_1_" gradientUnits="userSpaceOnUse" x1="-268.2482" y1="545.872" x2="-267.9982" y2="492.622" gradientTransform="matrix(8 0 0 -8 2401 4413)">
		<stop  offset="0" style="stop-color:#1A6DFF"/>
		<stop  offset="1" style="stop-color:#C822FF"/>
	</linearGradient>
	<path class="st0" d="M256,464c-114.7,0-208-93.3-208-208S141.3,48,256,48s208,93.3,208,208S370.7,464,256,464z M256,64
		C150.1,64,64,150.1,64,256s86.1,192,192,192s192-86.1,192-192S361.9,64,256,64z"/>
	<linearGradient id="SVGID_2_" gradientUnits="userSpaceOnUse" x1="256" y1="80" x2="256" y2="385.5413">
		<stop  offset="0" style="stop-color:#8AB4FF"/>
		<stop  offset="1" style="stop-color:#E492FF"/>
	</linearGradient>
	<path class="st1" d="M256,80c-97.2,0-176,78.8-176,176c0,51.2,21.9,97.4,56.9,129.5C144,326.1,194.6,280,256,280
		s112,46.1,119.1,105.5c35-32.2,56.9-78.3,56.9-129.5C432,158.8,353.2,80,256,80z M256,275c-41.4,0-75-33.6-75-75s33.6-75,75-75
		s75,33.6,75,75S297.4,275,256,275z"/>
</g>
</svg>
