<?xml version="1.0" encoding="utf-8"?>
<!-- Generator: Adobe Illustrator 24.1.2, SVG Export Plug-In . SVG Version: 6.00 Build 0)  -->
<svg version="1.1" id="Layer_1" xmlns="http://www.w3.org/2000/svg" xmlns:xlink="http://www.w3.org/1999/xlink" x="0px" y="0px"
	 viewBox="0 0 512 512" style="enable-background:new 0 0 512 512;" xml:space="preserve">
<style type="text/css">
	.st0{fill:url(#SVGID_1_);}
</style>
<linearGradient id="SVGID_1_" gradientUnits="userSpaceOnUse" x1="35.6627" y1="255.9985" x2="475.9853" y2="255.9985">
	<stop  offset="0" style="stop-color:#1A6DFF"/>
	<stop  offset="1" style="stop-color:#C822FF"/>
</linearGradient>
<path class="st0" d="M306.3,36c-1.6,0-3.3,0.3-4.8,1.1c-6.3,3.1-10.3,7.7-13.9,11.8c-3.6,4-6.3,7.6-6.3,7.6
	c-0.1,0.2-0.2,0.3-0.3,0.5c-9.9,14.9-14.8,31.9-15,49c-0.1,13.2,2.5,26.4,7.7,38.9c12.6,30.3,38,53.7,67.8,64.8h0
	c1.4,0.5,2.6,1,3.6,1.3c0.2,0,0.3,0.1,0.5,0.2c0.2,0,0.6,0.2,1.4,0.4c1.1,0.4,3,1.2,5.9,1.7c8.2,1.6,15.8,2.5,22.9,2.7
	c31.6,1,53.6-11.2,67.2-24.5c6.8-6.7,11.7-13.6,15.2-19.2c3.5-5.6,6.1-10.7,6.2-10.7h0c3-4.6,1.8-10.7-2.7-13.8
	c-4.5-3.1-10.7-2-13.9,2.5c-7.7,11.4-17.3,17.9-29.6,21.1s-27.3,2.7-44.6-1.6c-2.3-0.6-5.2-1.5-7.9-2.5c0,0,0,0-0.1,0
	c-3.2-1.1-6.4-2.5-9.6-4l0,0l-0.1,0c-5.9-2.9-11.6-6.4-16.8-10.5c-14.4-11.2-25.5-29.5-30.3-48.6s-3.1-38.6,5.7-52.7
	c1.9-3,2-6.9,0.4-10C313.1,38.1,309.9,36.1,306.3,36z M216,56c-2.3,0-4.5,0.8-6.3,2.3c-16,13-31.3,33.3-31.3,33.3
	c-0.1,0.1-0.2,0.3-0.3,0.4c-29.6,43-27.8,99.6-5.2,144.3c3.7,7.4,7.9,14.6,12.7,21.4c0,0,0,0,0,0c3.7,5.5,8.2,12.6,14.7,18.6
	c2.1,2.4,4.3,4.7,6.5,6.8c0.5,0.5,1.1,1.1,1.6,1.6c0,0.1,0.1,0.1,0.1,0.1c2.1,2,4.2,4.1,6.4,6.1l0,0c0.1,0.1,0.2,0.2,0.3,0.3
	l0.2,0.1c0.1,0.2,0.3,0.3,0.4,0.4c2.3,2.1,4.7,4.1,7.2,6c0.1,0.1,0.2,0.2,0.3,0.3c0,0,0.5,0.5,1.7,1.3c2.5,2,5,3.8,7.5,5.6
	c0.3,0.2,0.7,0.5,1,0.6c0.2,0.2,0.4,0.3,0.6,0.4h0c0.9,0.6,1.8,1.2,2.5,1.7c0.2,0.2,0.8,0.5,1.7,1.1c2,1.3,3.9,2.5,5.9,3.7
	c0.2,0.1,0.4,0.2,0.6,0.4c0,0,0.3,0.2,0.7,0.3c0.1,0.1,0.1,0,0.2,0.1c1.6,0.9,3.2,1.9,4.8,2.7c0.6,0.4,1.3,0.7,1.5,0.8
	c0.1,0.1,0.2,0.1,0.4,0.2c1,0.5,2.1,1.1,3.2,1.7c1,0.5,1.3,0.5,1.2,0.5c2.5,1.2,4.9,2.3,7.1,3.4c0.2,0,0.3,0.1,0.5,0.2
	c0.5,0.2,0.9,0.4,1.4,0.6c2,0.8,4.1,1.8,6.3,2.6c0.1,0,0.3,0.1,0.4,0.2c0.4,0.2,1.2,0.4,2.3,0.9c0,0,0,0,0,0
	c1.9,0.7,3.8,1.3,5.7,1.9c1,0.4,1.8,0.6,2.6,0.9c0,0,0,0,0,0c2.1,0.7,5.2,2,9.3,2.7c0,0,0,0,0,0c15.8,2.6,30.4,3.7,43.8,3.4
	c55-1.2,90.6-25.4,111.5-49.3c20.9-23.8,27.9-47.9,27.9-47.9c1.4-4.7-0.9-9.7-5.3-11.8c-4.4-2.1-9.7-0.7-12.5,3.4
	c-26.6,38.8-78.2,58.8-134.7,43.9c-2.5-0.6-4.9-1.3-7.3-2.1c-0.2,0-0.4-0.1-0.5-0.2c-0.4-0.1-0.8-0.2-1.6-0.5
	c-0.1,0-0.2-0.1-0.2-0.1c-1.8-0.6-3.6-1.1-5.1-1.8c0,0,0,0,0,0c-0.9-0.4-1.7-0.6-2.3-0.9c-2-0.8-3.9-1.5-5.5-2.2
	c-0.1-0.1-0.2-0.1-0.3-0.2c-0.9-0.4-1.3-0.5-0.7-0.3c-0.2-0.1-0.5-0.2-0.7-0.3c-2.2-1-4.5-2-6.7-3.2l-0.2,0c0,0,0,0-0.1-0.1
	c-1.1-0.6-2.2-1.1-3.4-1.8c0,0-0.1,0-0.2,0c-0.7-0.4-1.4-0.7-2-1.1v0c-1.3-0.7-2.6-1.5-4.2-2.4c-0.1,0-0.2-0.1-0.3-0.1
	c-0.5-0.3-0.6-0.4-0.7-0.4h0l-0.1,0c-1.9-1.2-3.7-2.3-5.1-3.2c-0.2-0.1-0.4-0.2-0.6-0.4c0.2,0.1-0.3-0.2-1.3-0.9
	c-1.1-0.7-2.1-1.4-3.3-2.2h0c0,0-0.1-0.1-0.2-0.1c-2.2-1.6-4.5-3.3-6.8-5.1l-0.2-0.2c-0.5-0.4-1-0.8-1.3-1.1c-0.1,0-0.2-0.1-0.2-0.2
	c-24.9-19.9-44.5-47.1-53.8-77.5v0c-9.3-30,0.3-66.8,16.5-94.8c1.8-3.1,1.8-6.9,0-10C222.8,57.9,219.5,56,216,56z M106,86
	c-2.5,0-4.9,0.9-6.7,2.6c-0.5,0.5-0.8,1-1.4,1.5c-19.4,18-33.2,39.8-33.5,40.3c-40.2,58.5-34.9,148.2-4.8,208.8c0,0,0,0.1,0,0.1
	c0.8,1.6,1.6,3.1,2.2,4.2c0.3,0.7,0.7,1.4,1,2c0.7,1.7,1.3,2.4,1.4,2.5c0.5,0.9,0.9,1.8,1.3,2.5c0,0.1,0.1,0.2,0.2,0.3
	c0.9,1.4,1.8,3,2.7,4.6c0,0,0,0.1,0.1,0.1c0.4,0.7,1,1.7,1.8,3c1.1,1.8,2.1,3.4,2.9,4.6c0,0.1,0.1,0.1,0.1,0.2
	c0.4,0.6,0.9,1.4,1.4,2.2c0,0.1,0.1,0.1,0.1,0.2c0,0.1,0,0.1,0.1,0.2c1.4,2.1,2.8,4.2,4.4,6.4c0.2,0.2,0.1,0.1,0.2,0.3
	c0.1,0.2,0.1,0.2,0.2,0.3c0,0,0.1,0.2,0.2,0.2l0,0c0.1,0.1,0.4,0.5,0.4,0.5c0,0,0,0.1,0.1,0.1c1.4,2,2.9,3.9,4.4,5.9
	c0.6,0.8,1.1,1.4,1.4,1.8c0.1,0.1,0.2,0.2,0.3,0.4c1.3,1.5,2.5,3.1,3.8,4.7c0,0.1,0.1,0.1,0.1,0.2c0.4,0.5,0.9,1.1,1.4,1.7
	c1.7,2,3.4,4,5.2,5.9c0.2,0.2,0.3,0.4,0.5,0.5l-0.1-0.1c0.5,0.6,1.4,1.6,2.3,2.1l-1.9-1.6c1.8,2,3.7,4,5.6,6c0,0,0.1,0,0.1,0.1
	c0.7,0.7,1.3,1.3,2,2c1.3,1.3,2.7,2.8,4.4,4.3c0.6,0.6,1.3,1.1,1.7,1.6c0,0,0,0,0.1,0c1.8,1.7,3.8,3.6,5.8,5.4
	c0.2,0.1,0.3,0.3,0.5,0.4c0,0,0,0,0,0c0.5,0.5,0.9,0.7,0.8,0.7c0.1,0.1,0.2,0.2,0.3,0.3c1.8,1.6,3.7,3.2,5.5,4.7
	c0.9,0.7,1.7,1.3,2.3,1.9c0,0,0,0,0.1,0c1.6,1.4,3.2,2.5,4.7,3.7c0,0,0,0,0,0.1c0.7,0.5,1.5,1.1,2.4,1.8c0,0,0.1,0,0.1,0.1
	c1.8,1.3,3.5,2.6,5.2,3.8c0.5,0.4,1.1,0.8,1.7,1.2c0,0,0.2,0.2,0.1,0.1c0.3,0.2,0.5,0.4,0.8,0.5c1.6,1.1,3.2,2.2,4.9,3.3
	c0,0,0,0,0,0c0.7,0.5,1.4,0.9,2.1,1.4c0,0,0.1,0.1,0.2,0.1c2.7,1.7,5.3,3.3,7.9,4.9c0.2,0.1,0.3,0.2,0.5,0.3c0.6,0.4,1.2,0.7,1.8,1
	c0,0,0,0,0.1,0.1c2,1.1,4,2.3,6.1,3.4l-0.2-0.1c1.4,0.8,2.7,1.4,3.7,1.9c1.3,0.7,2.6,1.4,4,2.1c0.2,0.1,0.4,0.2,0.7,0.4
	c0.7,0.3,0.7,0.4,0-0.1c0.3,0.2,0.5,0.3,0.8,0.4c0.1,0.1,0.5,0.3,1.3,0.7c0,0,0,0,0.1,0c2.3,1.2,4.6,2.2,6.9,3.2
	c0.5,0.3,0.9,0.4,0.8,0.4c0.2,0.1,0.4,0.2,0.6,0.3c2.6,1.2,5.3,2.3,8,3.4c0,0,0.1,0,0.2,0c0.2,0,0.9,0.4,1.7,0.7
	c0.2,0.1,0.3,0.1,0.5,0.2c0.1,0,0,0,0.1,0.1c2.1,0.8,4.3,1.6,6.4,2.4c0.6,0.3,1.1,0.4,1.4,0.6c2.8,0.9,5.5,1.8,8.4,2.7
	c0.1,0,0.2,0.1,0.3,0.1c0.2,0,0.9,0.3,1.7,0.5c0,0,0.1,0,0.1,0c0.2,0,0.2,0,0.4,0.1c2.4,0.7,5.2,1.8,8.9,2.5c0,0,0,0,0.1,0
	c19.3,3.6,37.2,5.2,53.9,5.2c143.4,0,189.3-116.4,189.3-116.4c1.8-4.6-0.2-9.9-4.5-12.3c-4.3-2.4-9.8-1.3-12.8,2.7
	c-40.8,53.7-114,64.5-185.4,48.1c-2.1-0.5-4.7-1.3-7.6-2.2c0,0-0.1,0-0.2,0c-0.5-0.2-1.1-0.3-1.3-0.4c-0.2,0-0.3-0.1-0.5-0.1
	c-2.5-0.8-5-1.6-7.6-2.5c0,0-0.1,0-0.2-0.1c-0.2,0-0.3-0.1-0.4-0.2c-0.2,0-0.3-0.1-0.5-0.2c-2-0.7-4.1-1.5-6.3-2.3l-0.4-0.2
	c-0.9-0.3-1.6-0.6-1.9-0.7c-2.3-0.9-4.8-2-7.1-3c-0.2-0.1-0.4-0.2-0.6-0.3c0,0-0.5-0.2-0.8-0.3c-2.1-1-4.1-2-6.2-3
	c-0.2,0-0.3-0.1-0.4-0.2c-0.1,0-0.5-0.2-1.2-0.6c-0.1,0-0.2-0.1-0.3-0.1c-1.4-0.7-2.9-1.4-4.5-2.3c0,0-0.1-0.1-0.2-0.1
	c-1.3-0.6-2.2-1.1-2.9-1.5c-0.1,0-0.1,0-0.2-0.1c-1.8-1-3.8-2.1-5.8-3.2l0.8,0.5c-1.3-0.9-2.3-1.3-2.8-1.6l0.3,0.2
	c-2.5-1.5-5-3-7.4-4.6c0,0-0.1,0-0.1-0.1c-0.5-0.3-1-0.6-1.7-1.1c-0.1-0.1-0.3-0.2-0.4-0.3c-1.6-1.1-3.3-2.2-5.1-3.4l-0.1-0.1
	c-0.4-0.3-0.9-0.7-1.6-1.2c-1.6-1.1-3.1-2.2-4.7-3.4h-0.1c-0.1-0.1-0.1-0.1-0.2-0.2c-0.6-0.5-1.3-1-2-1.6c-1.6-1.2-3-2.3-4.4-3.4
	l-0.2-0.1c-0.8-0.7-1.5-1.3-2-1.7c0,0,0,0-0.1,0c-1.8-1.5-3.6-3-5.5-4.7l0.8,0.8c-1.6-1.8-2.3-2-2-1.8l0.5,0.5
	c-1.9-1.7-3.9-3.6-5.9-5.4l-0.1-0.1c-0.3-0.3-0.8-0.8-1.5-1.4l-0.3-0.3c-1.4-1.4-2.8-2.7-4-3.9c0,0,0,0-0.1-0.1
	c-0.5-0.5-1.1-1.1-1.7-1.7c-1.7-1.7-3.4-3.6-5.1-5.4c-0.1-0.1-0.2-0.2-0.3-0.3h0c-1.8-1.9-3.5-3.9-5.2-6c0,0,0-0.1,0-0.1
	c-0.3-0.3-0.7-0.9-1.5-1.8c-1.2-1.5-2.4-3-3.8-4.6l0,0c-0.4-0.6-0.9-1.2-1.2-1.6l0,0c-1.5-2-2.9-3.9-4.3-5.8l0,0
	C114,282.4,101,240.5,97.3,200.1c-3.7-40.4,2.6-79.1,16.7-98.2c2.3-3,2.6-7,0.9-10.4C113.3,88.1,109.8,86,106,86z M288,92.5
	c0.5,5.5,0,11,1.3,16.3c5.8,23.2,18.8,45,37.5,59.5c6.4,4.9,13.2,9.2,20.3,12.7c0,0,0.1,0.1,0.1,0.1c3.8,1.8,7.6,3.4,11.6,4.9
	l-0.1,0c3,1.1,6.5,2.3,10,3.2c9,2.2,17.7,3.4,26.2,3.9c-5.9,1.2-10.9,3.2-18.5,3c-5.9-0.2-12.5-0.9-19.6-2.3h0
	c-0.5-0.1-1.7-0.5-3.8-1.2c-0.2-0.1-0.7-0.2-1.2-0.4c-1.2-0.4-2.2-0.7-2.9-1.1c-0.1,0-0.1,0-0.2-0.1c-24.7-9.3-46.1-29-56.4-53.8
	c-4.2-10.1-6.3-20.6-6.2-31C286,101.5,287.1,97,288,92.5z M186.4,120.7c-2.5,16.9-2.5,34.3,2.6,50.9c10.5,34.8,32.6,65.1,60.4,87.3
	c0.6,0.5,1.2,1,1.6,1.3c0.1,0,0.2,0.1,0.2,0.2c2.5,2,5.1,3.9,7.9,5.9c0,0,0.1,0.1,0.2,0.1c1.3,0.9,2.5,1.7,3.9,2.5c0,0,0,0,0,0
	c0.1,0,0.8,0.6,2.1,1.4c1.9,1.2,3.8,2.3,5.3,3.3c0.1,0,0.1,0.1,0.2,0.1c0.7,0.4,1.2,0.7,1.4,0.7c1.4,0.9,3,1.8,4.8,2.8c0,0,0,0,0,0
	c0.7,0.4,1.5,0.7,2.2,1.1c1.2,0.6,2.4,1.3,3.6,1.9c0.1,0,0.2,0.1,0.3,0.1c2.2,1.1,4.5,2.2,7,3.2c1.3,0.7,1.8,0.9,2.2,1
	c2.3,1,4.4,1.8,6.4,2.6c1,0.4,1.9,0.7,2.7,1.1l0,0c2.1,0.8,4.1,1.4,6,2.1c0.6,0.2,1.4,0.5,2.3,0.7c2.8,0.9,5.6,1.8,8.5,2.5
	c37.5,9.9,73.2,4.8,103.4-9.4c-18.4,16.4-45,30.8-85.6,31.7c-12.1,0.3-25.4-0.7-40.1-3.1c0,0-0.1,0-0.1,0c-1.2-0.2-3.3-1-6.4-2
	c-0.9-0.2-1.6-0.5-2.4-0.8c-1.7-0.5-3.5-1.2-5.2-1.8l-0.1,0c-0.4-0.2-1.3-0.5-2.3-0.8l-0.2-0.1c-0.1,0-0.1,0-0.2,0
	c-1.6-0.7-3.4-1.4-5.2-2.2c0,0,0,0,0,0c-0.5-0.2-1-0.5-1.6-0.7c-2.3-1.1-4.6-2.1-6.6-3.2c-0.1,0-0.2-0.1-0.4-0.1
	c-1-0.6-2.1-1.2-3.4-1.8l-0.1-0.1c-0.1,0-0.1-0.1-0.2-0.1c-0.5-0.2-1-0.5-1-0.5c-0.2-0.2-0.5-0.3-0.7-0.4c-1.4-0.7-2.9-1.6-4.3-2.5
	c-0.3-0.2-0.5-0.3-0.8-0.4c0,0-0.2-0.1-0.4-0.2c-1.7-1.1-3.4-2.1-5-3.2c0,0-0.1-0.1-0.1-0.1c-0.2-0.1-0.7-0.4-1.5-1
	c-1.3-0.8-2.3-1.5-3-2c-0.2-0.2-0.5-0.4-0.8-0.5c0,0,0,0-0.1,0c-2.3-1.6-4.5-3.3-6.6-5c-0.1-0.1-0.2-0.2-0.3-0.2
	c0,0-0.6-0.5-1.4-1.1c-2.2-1.8-4.3-3.5-6.4-5.4c0,0,0,0-0.1-0.1c-0.1-0.1-0.2-0.2-0.3-0.2c0,0-0.1-0.1-0.2-0.1
	c-0.1-0.1-0.1-0.1-0.2-0.2c-2-1.8-3.9-3.6-5.8-5.4l-0.1-0.1c-0.5-0.5-1-1-1.4-1.4c0,0,0,0-0.1,0c-2.1-2.1-3.9-4-5.6-5.9
	c-0.3-0.4-0.6-0.7-1-0.9c-3.8-3.4-8.1-9.7-12.3-15.8c0,0,0,0,0-0.1c-4.2-6-8-12.4-11.3-19c0,0,0,0,0-0.1
	C174,194.2,171.8,154.2,186.4,120.7z M78.7,146.8c-2.2,17.5-3,36-1.3,55.2c3.9,43.2,17.1,87.7,39.2,118.2c1.5,2.2,3.1,4.3,4.7,6.4
	c0.6,0.8,1,1.3,1.1,1.4c0.2,0.2,0.3,0.5,0.5,0.7c1.3,1.6,2.5,3.2,3.9,4.8c0.1,0.1,0.2,0.2,0.3,0.3c0.2,0.3,0.7,0.9,1.4,1.7
	c1.8,2.1,3.7,4.3,5.6,6.4c0.1,0.1,0.2,0.2,0.2,0.3c1.8,2,3.8,4.1,5.7,6.1c0.5,0.5,1.1,1.1,1.7,1.8c0,0,0,0,0,0l0,0
	c1.6,1.6,3,3,4.4,4.3c0.1,0.1,0.2,0.2,0.3,0.3c0.3,0.3,0.8,0.8,1.6,1.6c0,0,0.1,0,0.1,0.1c2,1.9,4.1,3.8,6.2,5.7
	c0.2,0.2,0.4,0.4,0.5,0.5c0.8,0.6,0.6,0.7-0.6-0.7c0.3,0.3,0.5,0.5,0.8,0.8c2,1.8,3.9,3.5,6.1,5.2c0.8,0.6,1.4,1.1,1.9,1.5
	c0,0,0.1,0.1,0.2,0.2c1.7,1.4,3.3,2.6,4.8,3.8c0.1,0.1,0.2,0.2,0.3,0.3c0.7,0.4,1.3,0.9,2,1.4c0.1,0.1,0.2,0.2,0.3,0.3
	c1.8,1.3,3.5,2.5,5.4,3.9c0.4,0.3,1,0.7,1.7,1.3c0,0,0.1,0,0.2,0c1.8,1.3,3.7,2.6,5.8,3.9c0.5,0.4,1.2,0.9,2,1.4c0,0,0.1,0,0.1,0
	c2.7,1.7,5.3,3.4,7.9,4.9c0.1,0,0.2,0.1,0.3,0.2c0.9,0.5,1.3,0.7,1.2,0.7c0.2,0.2,0.5,0.4,0.8,0.5c1.9,1,3.8,2.1,5.9,3.3l0,0
	c0,0,0.1,0,0.2,0c1.3,0.7,2.5,1.3,3.4,1.8c1.5,0.8,3.2,1.7,4.9,2.5c0,0,0.2,0.1,0.2,0.1c0.1,0,0.1,0,0.1,0c0.6,0.3,1.3,0.7,2.3,1.1
	c2,1,3.9,1.9,6,2.9c0.2,0.1,0.3,0.2,0.5,0.2c0,0,0.7,0.3,1.2,0.5c2.5,1.1,5.2,2.2,7.9,3.3c0,0,0,0,0,0c0.9,0.4,1.4,0.5,1.6,0.6
	c0.2,0.1,0.3,0.1,0.4,0.2c2.3,0.9,4.7,1.9,7.3,2.8c0.4,0.2,0.9,0.3,1.3,0.5c2.5,0.9,5,1.7,7.6,2.5c1,0.4,1.9,0.6,2.7,0.8
	c2.6,0.8,5.4,1.7,8.7,2.5c52.9,12.2,108.3,9.1,153.3-13.8c-26,26.1-68.7,52.2-135.5,52.2c-15.4,0-32.1-1.5-50.3-4.8
	c-1.8-0.4-4.1-1.1-7.2-2.1c-0.2-0.1-0.3-0.1-0.5-0.2c0,0-0.7-0.2-1.4-0.4l-0.3-0.1c-2.5-0.8-5-1.6-7.5-2.5c-0.1,0-0.1,0-0.2-0.1
	c-0.3-0.1-0.2,0-0.1,0c-0.1,0-0.3-0.1-0.4-0.2c-2.4-0.9-4.8-1.8-7-2.6c-0.2-0.1-0.4-0.1-0.5-0.2c0.1,0-0.5-0.2-1.3-0.5l-0.2-0.1
	c-2.4-1-4.8-2-7.1-3c-0.5-0.2-1.1-0.5-1.2-0.5c0,0-0.1-0.1-0.1-0.1c-2.2-1-4.2-1.9-6.2-2.9h-0.1c-0.2-0.1-0.7-0.4-1.1-0.6
	c-0.9-0.5-1-0.5-1.3-0.6l-0.2,0c-1.3-0.7-2.5-1.3-3.7-2c-0.1-0.1-0.2-0.2-0.4-0.2c-1.2-0.6-2.1-1.1-2.8-1.4c0,0-0.1-0.1-0.2-0.1
	c-1.8-1-3.6-2-5.4-3l-0.1,0c-0.8-0.5-1.5-0.9-2.3-1.3l-0.2-0.2c-2.3-1.4-4.6-2.9-7-4.3c-0.7-0.5-1.3-0.9-2-1.3l0,0c0,0,0,0,0,0
	c-1.5-1.1-3-2.1-4.6-3.1c-0.2-0.2-0.5-0.4-0.8-0.6c-0.4-0.2-0.9-0.6-1.4-1c0,0-0.1-0.1-0.1-0.1c-1.6-1.1-3.2-2.3-4.8-3.4l0,0h0
	c-0.7-0.6-1.5-1.2-2.3-1.8l0,0c-1.6-1.2-3-2.3-4.3-3.4l0,0c-0.8-0.6-1.4-1.1-2-1.6c0,0,0,0,0,0c-1.8-1.5-3.6-3-5.3-4.5
	c-0.2-0.2-0.4-0.4-0.6-0.5c-0.2-0.2-0.4-0.4-0.5-0.5c-1.8-1.5-3.6-3.3-5.5-5.1l0-0.1c-0.7-0.6-1.3-1.1-1.8-1.6c0,0-0.1-0.1-0.1-0.1
	c-1.3-1.2-2.5-2.5-4-4c-0.1-0.1-0.2-0.2-0.2-0.3c-0.5-0.5-1-0.9-1.5-1.4c-1.8-1.9-3.5-3.7-5.2-5.6c0,0-0.1-0.1-0.1-0.1
	c-0.1-0.1-0.2-0.2-0.3-0.3c-1.7-2-3.4-3.9-5-5.8c-0.1-0.1-0.2-0.2-0.2-0.3c-0.3-0.4-0.7-0.9-1.2-1.4l0,0c0,0,0-0.1-0.1-0.1
	c-1.2-1.5-2.5-3.1-3.8-4.7c-0.5-0.6-0.9-1.2-1.1-1.5c-0.1-0.1-0.2-0.2-0.3-0.3c-1.3-1.7-2.6-3.4-3.9-5.2l-0.1-0.1
	c-0.4-0.5-0.6-0.8-0.5-0.6c-0.1-0.1-0.2-0.2-0.2-0.4c-0.1-0.1-0.2-0.2-0.2-0.3c0,0-0.1-0.1-0.1-0.2c0,0,0,0,0,0
	c-1.3-1.9-2.7-3.9-4.1-6c0-0.1-0.1-0.2-0.2-0.4c-0.2-0.4-0.5-0.9-0.9-1.5l-0.1-0.2c-1.2-1.9-2.2-3.5-2.9-4.7
	c-0.1-0.2-0.2-0.4-0.3-0.5c-0.3-0.5-0.7-1.2-1.3-2.1l0-0.1c-0.8-1.4-1.7-2.8-2.6-4.3v-0.1c-0.1-0.1-0.1-0.1-0.2-0.2
	c-0.4-0.8-0.7-1.4-1-2c-0.1-0.2-0.2-0.4-0.4-0.7c-0.4-0.8-0.6-1.1-0.2-0.4c-0.2-0.4-0.3-0.7-0.5-0.9c-0.4-0.6-0.7-1.2-0.9-1.8
	c-0.1-0.2-0.2-0.3-0.2-0.5c-0.8-1.5-1.4-2.7-1.9-3.6c0-0.1-0.1-0.2-0.1-0.3C51.5,277.8,47.8,196.9,78.7,146.8z M229.2,277.1l0.1,0
	c0.2,0.2,0.1,0.2,0.3,0.5C229.5,277.4,229.3,277.2,229.2,277.1z M112.7,382.1c0,0,0.1,0.1,0.2,0.2c0.1,0.1,0.1,0.1,0.2,0.2l0,0v0
	c0.1,0,0.1,0.2,0.2,0.2C112.9,382.3,112.8,382.2,112.7,382.1z M153.5,417.7l0.4,0.2c-0.7-0.5-0.7-0.5,0,0.1
	C153.7,417.9,153.6,417.8,153.5,417.7z"/>
</svg>
