<?xml version="1.0" encoding="utf-8"?>
<!-- Generator: Adobe Illustrator 24.1.2, SVG Export Plug-In . SVG Version: 6.00 Build 0)  -->
<svg version="1.1" id="Layer_1" xmlns="http://www.w3.org/2000/svg" xmlns:xlink="http://www.w3.org/1999/xlink" x="0px" y="0px"
	 viewBox="0 0 512 512" style="enable-background:new 0 0 512 512;" xml:space="preserve">
<style type="text/css">
	.st0{fill-rule:evenodd;clip-rule:evenodd;fill:url(#SVGID_1_);}
	.st1{fill-rule:evenodd;clip-rule:evenodd;fill:url(#SVGID_2_);}
</style>
<g>
	
		<linearGradient id="SVGID_1_" gradientUnits="userSpaceOnUse" x1="-560.0414" y1="-11.4454" x2="-313.1822" y2="-258.3483" gradientTransform="matrix(0.9988 0 0 -0.9987 689.0112 124.4931)">
		<stop  offset="0" style="stop-color:#1A6DFF"/>
		<stop  offset="1" style="stop-color:#C822FF"/>
	</linearGradient>
	<path class="st0" d="M255.7,341.5c77.4,105.6,153.2-29.5,153.1-110.7c-0.1-96-97.4-149.7-153.2-149.7C166.2,81.2,81,155.1,81,256.3
		C81,368.7,178.7,431,255.6,431c-17.4-2.5-75.5-14.9-76.3-148.7c-0.5-90.4,29.5-126.6,76.1-110.7c1,0.4,51.4,20.3,51.4,85.2
		C307,321.5,255.7,341.5,255.7,341.5z"/>
	
		<linearGradient id="SVGID_2_" gradientUnits="userSpaceOnUse" x1="-302.0133" y1="-247.1547" x2="-548.8725" y2="-0.2736" gradientTransform="matrix(0.9988 0 0 -0.9987 689.0112 124.4931)">
		<stop  offset="0" style="stop-color:#6DC7FF"/>
		<stop  offset="1" style="stop-color:#E6ABFF"/>
	</linearGradient>
	<path class="st1" d="M255.6,171.6c-51.2-17.6-113.8,24.5-113.8,109C141.8,418.5,244,431,256.4,431c89.5,0,174.6-73.9,174.6-175.1
		c0-112.4-97.6-174.7-174.6-174.7c21.3-3,114.9,23.1,114.9,151c0,83.4-69.9,128.9-115.4,109.4c-1-0.4-51.4-20.3-51.4-85.2
		C204.5,191.8,255.6,171.6,255.6,171.6L255.6,171.6z"/>
</g>
</svg>
