<?xml version="1.0" encoding="utf-8"?>
<!-- Generator: Adobe Illustrator 24.1.2, SVG Export Plug-In . SVG Version: 6.00 Build 0)  -->
<svg version="1.1" id="Layer_1" xmlns="http://www.w3.org/2000/svg" xmlns:xlink="http://www.w3.org/1999/xlink" x="0px" y="0px"
	 viewBox="0 0 512 512" style="enable-background:new 0 0 512 512;" xml:space="preserve">
<style type="text/css">
	.st0{fill:url(#SVGID_1_);}
</style>
<linearGradient id="SVGID_1_" gradientUnits="userSpaceOnUse" x1="15.7326" y1="255.9805" x2="496.2973" y2="255.9805">
	<stop  offset="0" style="stop-color:#1A6DFF"/>
	<stop  offset="1" style="stop-color:#C822FF"/>
</linearGradient>
<path class="st0" d="M246,26c-71.7,0-130,82.9-130,184.9c0,52.7,15.6,100.1,40.6,133.7c-3.5,19,9,37.3,28,40.8
	c2.1,0.4,4.2,0.6,6.4,0.6c19.3,0,35-15.7,35-35s-15.7-35-35-35c-1.9,0-3.8,0.2-5.7,0.5c-17.9-26.6-29.3-64.4-29.3-105.6
	C156,132.3,197.2,66,246,66c41.2,0,76.9,47.4,87,109.4c14.2,4.1,28.4,9.6,42.3,16.3C368.5,98.7,313.1,26,246,26z M231,176
	c-19.3,0-35,15.7-35,35s15.7,35,35,35l0,0c13.3,0,25.5-7.6,31.4-19.6c32.5-2,70.1,8,104.7,28.8c68.6,41.1,105.9,113.1,81.4,157.1
	c-8,14.5-22.5,24.9-41.9,30c-27.9,7.5-62.1,3.7-95.8-9.9c-10.7,9.9-22.4,19.3-35.3,27.9c33.3,16.8,68.5,25.7,101,25.7
	c14.1,0,27.7-1.7,40.4-5.1c30.1-8,53.1-25.1,66.5-49.2c35.8-64.5-6.3-157.1-95.8-210.8c-42.6-25.6-89.8-37.3-131.3-33.9
	C249.8,180,240.6,176,231,176z M97.6,239.2C26.8,294-3.6,374,28.5,431.7c13.4,24.2,36.4,41.2,66.5,49.2c12.7,3.4,26.3,5.1,40.4,5.1
	c38,0,79.7-12.1,117.7-34.8c42.5-25.5,73.9-59.7,91.7-95.5C362.3,353.7,376,339,376,321c0-19.3-15.7-35-35-35s-35,15.7-35,35
	c0,5.4,1.3,10.5,3.5,15c-14.4,29.7-41.4,59.4-77,80.8c-43,25.8-90.5,35.3-127.2,25.4c-19.4-5.2-33.8-15.6-41.9-30
	c-19.3-34.8,0-87,42.9-127.7C102.2,270.2,99.2,255,97.6,239.2z"/>
</svg>
