<?xml version="1.0" encoding="utf-8"?>
<!-- Generator: Adobe Illustrator 24.1.2, SVG Export Plug-In . SVG Version: 6.00 Build 0)  -->
<svg version="1.1" id="Layer_1" xmlns="http://www.w3.org/2000/svg" xmlns:xlink="http://www.w3.org/1999/xlink" x="0px" y="0px"
	 viewBox="0 0 512 128" style="enable-background:new 0 0 512 128;" xml:space="preserve">
<style type="text/css">
	.st0{fill:url(#SVGID_1_);}
	.st1{fill:url(#SVGID_2_);}
	.st2{fill:url(#SVGID_3_);}
	.st3{fill:url(#SVGID_4_);}
	.st4{fill:url(#SVGID_5_);}
	.st5{fill:url(#SVGID_6_);}
	.st6{fill:url(#SVGID_7_);}
	.st7{fill:url(#SVGID_8_);}
	.st8{fill:url(#SVGID_9_);}
	.st9{fill:url(#SVGID_10_);}
	.st10{fill:url(#SVGID_11_);}
</style>
<g>
	<linearGradient id="SVGID_1_" gradientUnits="userSpaceOnUse" x1="7.6553" y1="64.4163" x2="89.7173" y2="64.4163">
		<stop  offset="0" style="stop-color:#8FB0DE"/>
		<stop  offset="1" style="stop-color:#C097C5"/>
	</linearGradient>
	<path class="st0" d="M38.3,110.2c-3.1,0-6.1-0.5-9-1.4c-2.9-0.9-5.5-2.4-7.8-4.3c-2.3-2-4.2-4.6-5.5-7.8c-1.4-3.2-2.1-7-2.1-11.6
		v-0.4c0-0.7,0.2-1,0.5-1c0.4,0,0.7,0.4,0.8,1.2c0.6,4.4,1.9,8.2,3.7,11.6c1.8,3.3,4.1,5.9,6.9,7.8s5.7,2.8,8.9,2.8
		c3.4,0,6.6-0.9,9.7-2.8c3.1-1.9,6-4.3,8.7-7.3c2.8-3,5.3-6.2,7.8-9.5c2.4-3.4,4.6-6.5,6.5-9.5c7.4-11.2,12.5-21.1,15.3-29.6
		c2.8-8.5,4.1-15.7,3.8-21.6c-1,3.4-2.5,7.2-4.5,11.3c-2,4.1-4.3,8.1-6.9,12.2c-2.6,4-5.2,7.8-7.9,11.1c-0.9,1.1-2.1,2.5-3.7,4.3
		c-1.6,1.8-3.4,3.7-5.4,5.7c-2,2-4.1,3.9-6.2,5.7c-2.1,1.8-4.2,3.3-6.3,4.4s-3.9,1.7-5.5,1.7c-0.2,0-0.4,0-0.6,0s-0.4,0-0.6-0.1
		c-1.5-0.4-2.3-1.6-2.3-3.6c0-1.6,0.4-3.6,1.2-5.9c0.8-2.3,1.9-4.9,3.2-7.6c1.3-2.8,2.8-5.6,4.4-8.4c1.6-2.9,3.1-5.6,4.6-8.1
		c0.9-1.5,1.9-3.3,3.1-5.4c1.2-2.1,2.3-4.2,3.2-6.5c0.9-2.3,1.4-4.4,1.4-6.3c0-2-0.7-3.6-2.2-4.9c-1.4-1.3-4-1.9-7.7-1.9
		c-2.3,0-4.7,0.2-7.3,0.6c-2.6,0.4-5.2,0.9-7.7,1.6c-2.5,0.6-4.9,1.3-7,1.9c-2.1,0.6-3.9,1.2-5.2,1.6c-3.2,1.1-5.9,2.3-8.2,3.6
		c-2.3,1.3-3.4,2.6-3.4,3.8c0,0.9,0.6,1.7,1.7,2.4l0.2,0.2c0,0.1-0.1,0.1-0.4,0.1c-0.4,0-0.7-0.1-0.8-0.2c-1.4-0.9-2.1-2.3-2.1-4.1
		c0-1.4,0.5-2.8,1.4-4.3s2.4-2.8,4.3-3.9c3.3-1.9,7-3.5,11.2-4.8c4.2-1.3,8.5-2.4,12.9-3.1c4.4-0.8,8.3-1.1,11.9-1.1
		c5.2,0,8.8,0.8,10.9,2.4c2,1.6,3.1,3.6,3.1,6.2c0,2.3-0.6,4.8-1.8,7.5c-1.2,2.8-2.6,5.6-4.3,8.5c-1.7,2.9-3.3,5.6-4.8,8.2
		c-1.4,2.4-2.8,5-4.4,7.6c-1.5,2.6-3,5.2-4.3,7.7c-1.3,2.5-2.4,4.8-3.2,6.9c-0.8,2.1-1.2,3.8-1.2,5.1c0,0.8,0.2,1.5,0.6,2
		c0.4,0.5,1,0.8,1.9,0.8c1.3,0,2.8-0.6,4.7-1.9c1.9-1.3,3.9-2.9,5.9-4.9c2.1-2,4.1-4.1,6-6.3c1.9-2.2,3.6-4.1,5.1-5.9
		c1.4-1.8,2.4-3.1,3-3.9C70.8,52.1,74.7,46,78,40.3c3.4-5.8,5.7-11.1,7.2-15.9c0.4-1.4,0.9-2.2,1.4-2.4c0.2-0.1,0.4-0.2,0.6-0.2
		c0.3,0,0.6,0.3,0.8,0.8c0.6,1.7,1.1,3.6,1.4,5.6c0.3,2,0.4,4.2,0.4,6.5c0,4.1-0.4,8.5-1.3,13.2c-0.8,4.6-2,9.3-3.5,14
		c-1.5,4.7-3.2,9.1-5.1,13.3c-1.9,4.2-4,8-6.3,11.2c-3,4.4-6.4,8.4-10.2,12c-3.8,3.6-7.8,6.5-12,8.6
		C47.1,109.1,42.7,110.2,38.3,110.2z"/>
	<linearGradient id="SVGID_2_" gradientUnits="userSpaceOnUse" x1="72.2324" y1="64.3221" x2="159.4644" y2="64.3221">
		<stop  offset="0" style="stop-color:#8FB0DE"/>
		<stop  offset="1" style="stop-color:#C097C5"/>
	</linearGradient>
	<path class="st1" d="M83.6,110.9c-3.6,0-6.4-0.9-8.4-2.8c-2-1.9-3-4.4-3-7.6c0-2,0.4-4.2,1.3-6.6c0.8-2.4,2.1-5,3.9-7.7
		c1.9-3,4.3-5.9,7-8.6c2.8-2.8,5.7-5.3,8.9-7.7c3.2-2.4,6.3-4.4,9.4-6.2c0.6-4.2,1.8-8.4,3.9-12.7c2-4.3,4.5-8.4,7.6-12.3
		c3-3.9,6.4-7.4,10.1-10.6c3.7-3.1,7.4-5.7,11.2-7.6c3.4-1.8,6.9-2.6,10.4-2.6c3.3,0,6.2,0.9,8.7,2.6c2.5,1.8,4.1,4.4,4.7,8
		c0.1,0.3,0.1,0.7,0.1,1c0,0.4,0,0.8,0,1.1c0,3.3-0.9,7.1-2.6,11.4c-1.8,4.4-4.2,9-7.2,14c-3.1,5-6.6,9.9-10.7,15
		c-4,5-8.4,9.9-12.9,14.5c-4.6,4.6-9.2,8.8-14,12.5c-4.7,3.7-9.4,6.7-13.9,8.9c-2.8,1.4-5.5,2.4-7.9,3.1
		C87.8,110.5,85.6,110.9,83.6,110.9z M86.5,107.4c1.3,0,2.7-0.2,4.3-0.5c1.5-0.3,3.1-0.8,4.7-1.5c4-1.7,8.2-4.2,12.6-7.5
		c4.4-3.3,8.8-7.1,13.1-11.5c4.4-4.4,8.5-9,12.3-13.8c3.9-4.9,7.3-9.7,10.3-14.6c3-4.9,5.4-9.5,7.1-13.9c1.7-4.4,2.6-8.2,2.6-11.6
		c0-3.1-0.8-5.6-2.3-7.5c-1.5-1.9-3.8-2.9-7-2.9c-2.1,0-4.5,0.5-7.3,1.4c-5.7,1.9-10.7,4.8-15,8.6c-4.3,3.8-7.8,8.2-10.4,13.3
		c-2.6,5-4.3,10.4-5.1,16.1c2.9-1.4,5.9-2.6,9-3.4c3-0.8,6-1.3,9-1.3c0.4,0,0.8,0,1.2,0c0.4,0,0.8,0,1.2,0.1
		c1.7,0.1,3.1,0.5,4.3,1.3c1.2,0.7,1.9,1.7,2.3,3c0.1,0.3,0.2,0.5,0.2,0.6c0,0.2,0,0.3,0,0.4c0,0.2-0.1,0.3-0.2,0.3
		c-0.1,0-0.2,0-0.3-0.1c-0.2-0.1-0.4-0.1-0.6-0.2c-0.3-0.1-0.5-0.1-0.8-0.1c-0.3,0-0.6,0-0.9,0c-2.9,0-6.6,1-10.9,2.9
		c-4.3,1.9-8.6,4.3-13,7.1c0.4,1,0.9,1.7,1.5,2.2c0.6,0.4,1.2,0.7,1.8,0.8c0.4,0,0.7,0.2,0.7,0.6c0,0.3-0.3,0.5-1,0.5
		c-0.3,0-0.6,0-1-0.1c-0.4-0.1-0.9-0.2-1.5-0.3c-1.1-0.3-2.1-1-2.9-2c-3.8,2.6-7.6,5.3-11.3,8.3c-3.7,2.9-7,6.2-9.8,9.9
		c-1.6,2.1-2.7,3.9-3.4,5.5c-0.7,1.6-1.1,3.1-1.1,4.3c0,1.9,0.7,3.4,2.2,4.3C82.4,106.9,84.3,107.4,86.5,107.4z"/>
	<linearGradient id="SVGID_3_" gradientUnits="userSpaceOnUse" x1="148.6543" y1="76.8242" x2="157.772" y2="76.8242">
		<stop  offset="0" style="stop-color:#8FB0DE"/>
		<stop  offset="1" style="stop-color:#C097C5"/>
	</linearGradient>
	<path class="st2" d="M151.6,81.4c-0.8,0-1.4-0.2-1.9-0.7c-0.7-0.6-1-1.3-1-2.3c0-1.4,0.6-2.8,1.7-3.9c1.3-1.5,2.8-2.3,4.5-2.3
		c0.7,0,1.3,0.2,1.9,0.6c0.7,0.6,1,1.3,1,2.4c0,1.4-0.6,2.7-1.7,3.9C154.7,80.6,153.2,81.4,151.6,81.4z"/>
	<linearGradient id="SVGID_4_" gradientUnits="userSpaceOnUse" x1="167.7354" y1="53.8411" x2="240.2095" y2="53.8411">
		<stop  offset="0" style="stop-color:#8FB0DE"/>
		<stop  offset="1" style="stop-color:#C097C5"/>
	</linearGradient>
	<path class="st3" d="M206,89.2c-1.4,0-2.5-0.5-3.1-1.5c-0.6-1-0.9-2.1-0.9-3.2c0-1.6,0.4-3,1.1-4.4c1.6-3,3.7-6.2,6.1-9.4
		c2.4-3.3,5-6.6,7.7-9.9c2.7-3.3,5.1-6.4,7.3-9.4c-1.5-0.2-3.1-0.3-4.8-0.3c-4.3,0-8.9,0.5-13.9,1.6c-1.6,0.3-3,0.7-4.4,1.1
		c-1.3,0.4-2.6,0.6-3.6,0.6c-0.7,0-1.3-0.1-1.7-0.4c-0.2-0.1-0.4-0.4-0.7-0.7c-0.3-0.3-0.4-0.8-0.4-1.3c0-0.7,0.6-1.5,1.7-2.4
		c1.1-0.9,3.4-1.7,6.7-2.3c2.2-0.4,4.8-0.6,7.9-0.6c2.6,0,5.2,0.2,7.9,0.5c2.7,0.3,5.2,0.8,7.3,1.5c2.4-3.3,4.1-6.2,5.2-8.7
		c1.1-2.5,1.6-4.6,1.6-6.3c0-2.8-1.2-4.8-3.5-5.9c-2.3-1.1-5.3-1.7-9-1.7c-2.3,0-4.8,0.2-7.5,0.5c-2.7,0.3-5.4,0.8-8.1,1.5
		c-0.6,0.1-1.8,0.4-3.8,0.9c-1.9,0.5-4.2,1.1-6.9,1.8c-2.7,0.7-5.4,1.6-8.2,2.5c-2.8,0.9-5.5,1.9-7.9,3c-2.5,1.1-4.5,2.2-6,3.3
		c-1.5,1.2-2.3,2.3-2.3,3.5c0,1,0.7,2,2.1,2.9c0.1,0.1,0.2,0.2,0.2,0.3c0,0.1-0.2,0.2-0.5,0.2c-0.4,0-0.7-0.1-1-0.3
		c-1.8-1.3-2.7-3.1-2.7-5.5c0-1.8,0.6-3.6,1.8-5.5c1.2-1.9,3-3.6,5.5-5c3.2-1.8,6.8-3.5,10.7-4.9c3.9-1.5,8-2.7,12.3-3.8
		s8.4-1.8,12.5-2.4c4.1-0.5,7.9-0.8,11.4-0.8c4.6,0,8.3,0.5,11,1.4c2.7,0.9,4.6,2.2,5.7,3.9c1.1,1.6,1.7,3.4,1.7,5.5
		c0,2.7-0.8,5.5-2.4,8.6s-3.4,5.7-5.3,8.1c-0.5,0.6-1,1.3-1.6,2c-0.6,0.7-1.2,1.4-1.9,2.2c0.9,0.5,1.8,1.1,2.5,1.9
		c0.4,0.6,0.7,1,0.7,1.4c0,0.4-0.3,0.7-0.8,0.7c-0.4,0-0.8-0.2-1.3-0.5c-0.4-0.3-0.9-0.6-1.4-0.8c-0.5-0.2-1-0.4-1.6-0.6
		c-1.8,2.1-3.6,4.4-5.6,6.7c-2,2.4-3.9,4.7-5.7,6.9c-1.8,2.3-3.4,4.4-4.9,6.3c-0.8,1.1-1.7,2.4-2.7,3.8c-1,1.4-1.9,2.8-2.6,4.3
		c-0.7,1.5-1.1,3-1.1,4.6c0,0.9,0.2,1.7,0.5,2.4c0.3,0.7,0.9,1,1.9,1c0.4,0,0.9-0.1,1.5-0.3l0.4-0.1c0.2,0,0.4,0.1,0.4,0.3
		c0,0.3-0.3,0.6-0.8,0.8C207.4,89.1,206.6,89.2,206,89.2z"/>
	<linearGradient id="SVGID_5_" gradientUnits="userSpaceOnUse" x1="226.9556" y1="63.6643" x2="267.2813" y2="63.6643">
		<stop  offset="0" style="stop-color:#8FB0DE"/>
		<stop  offset="1" style="stop-color:#C097C5"/>
	</linearGradient>
	<path class="st4" d="M242.9,81.5c-2.7,0-4.5-0.5-5.5-1.6s-1.4-2.2-1.4-3.4c0-1.6,0.6-3.4,1.9-5.2c0.8-1.1,1.6-2.3,2.5-3.6
		c0.9-1.3,1.8-2.6,2.6-3.8c0.8-1.2,1.4-2,1.7-2.5c0.4-0.6,0.7-1,0.8-1.3c0.1-0.2,0.1-0.5,0.1-0.7c0-0.4-0.2-0.7-0.7-1.1
		c-0.5-0.3-1.2-0.5-2.3-0.5c-0.3,0-0.6,0-0.8,0c-0.2,0-0.5,0-0.7,0c-0.5,0-0.8,0-0.8-0.1l-0.3,0.4c-1.8,2.3-3.6,4.6-5.6,6.8
		c-2,2.2-4.2,4.3-6.6,6.2c-0.2,0.2-0.4,0.3-0.6,0.3c-0.3,0-0.4-0.1-0.4-0.4c0-0.5,0.4-1.1,1.1-1.7c1.9-1.6,3.9-3.5,5.7-5.5
		c1.9-2,3.6-4.2,5.1-6.4c-0.6-0.4-0.8-1.1-0.8-2.3c0-1.7,0.5-3.5,1.6-5.5c0.8-1.3,1.6-2.3,2.5-3c0.9-0.7,1.7-1,2.4-1
		c1.3,0,2,0.8,2,2.4c0,1-0.4,2.3-1.1,3.8c-0.3,0.8-0.9,1.7-1.8,2.9c-0.9,1.2-1.8,2-2.7,2.5c1.3-0.4,3-0.7,5-0.9
		c2-0.2,3.7-0.2,5.1-0.2c0.8,0,1.8,0.2,3,0.7c1.2,0.5,1.8,1.3,1.8,2.5c0,0.8-0.4,1.7-1.1,2.6c-0.2,0.3-0.7,0.8-1.5,1.8
		c-0.8,0.9-1.7,2.1-2.7,3.4c-1,1.3-1.9,2.6-2.7,3.9c-0.8,1.2-1.5,2.3-1.9,3.3c-0.5,1-0.7,1.8-0.7,2.5c0,1,0.6,1.5,1.7,1.5
		c1.3,0,3.1-0.6,5.3-1.9c2.2-1.3,4.6-2.9,7.1-4.8c2.5-2,4.9-4,7-6.2c0.2-0.2,0.5-0.4,0.7-0.4c0.3,0,0.4,0.2,0.4,0.5
		c0,0.4-0.2,0.7-0.5,1c-2.2,2.2-4.6,4.4-7.3,6.7c-2.7,2.3-5.4,4.2-8.3,5.8C248.4,80.7,245.6,81.5,242.9,81.5z"/>
	<linearGradient id="SVGID_6_" gradientUnits="userSpaceOnUse" x1="260.8892" y1="68.3174" x2="301.873" y2="68.3174">
		<stop  offset="0" style="stop-color:#8FB0DE"/>
		<stop  offset="1" style="stop-color:#C097C5"/>
	</linearGradient>
	<path class="st5" d="M270,82.3c-2.4,0-4.3-0.6-5.5-1.8c-1.2-1.2-1.8-2.8-1.8-4.7c0-1.2,0.2-2.4,0.5-3.5c0.3-1.1,0.7-2.1,1-3
		c-0.4,0.4-0.9,0.8-1.3,1.2c-0.4,0.3-0.7,0.6-1,0.8c-0.2,0.2-0.5,0.3-0.7,0.3c-0.3,0-0.4-0.2-0.4-0.5c0-0.4,0.3-0.9,0.9-1.5
		c2.2-1.8,3.9-3.4,5.2-4.8c1.3-1.4,2.6-2.7,3.9-3.9c2.3-2,4.8-3.6,7.4-4.7s5.3-1.7,7.9-1.7c2.8,0,4.9,0.7,6.5,2
		c1.6,1.3,2.4,3.3,2.4,5.8c0,1.4-0.4,3.1-1.3,5c-0.8,1.9-2.2,3.8-4,5.8c-0.8,0.8-1.6,1.6-2.5,2.4c-0.9,0.8-1.8,1.4-2.4,1.7
		c3.1-0.3,6-1.4,8.6-3.2c2.7-1.8,5.1-3.7,7.2-5.5c0.3-0.2,0.5-0.3,0.7-0.3c0.3,0,0.5,0.2,0.5,0.5c0,0.3-0.2,0.5-0.5,0.8
		c-2.7,2.6-5.6,4.7-8.7,6.5c-3.1,1.8-6.5,2.6-10.3,2.5c-2.2,1.2-4.3,2.1-6.4,2.8C273.9,81.9,271.9,82.3,270,82.3z M274.2,79.6
		c0.9,0,1.8-0.2,2.8-0.5c1-0.3,2-0.7,3-1.2c-0.4,0-0.7-0.2-1.1-0.6c-0.3-0.4-0.5-0.9-0.5-1.5c0-1.3,0.5-2.5,1.4-3.9s2.1-2.4,3.5-3.4
		c1.4-0.9,2.7-1.4,4-1.4c0.8,0,1.5,0.2,2.1,0.6c0.7,0.4,1,1,1.1,1.6c1.1-1.2,1.8-2.5,2.2-3.9c0.4-1.4,0.6-2.7,0.6-3.9
		c0-1.6-0.5-2.9-1.6-3.7c-1-0.8-2.4-1.3-4.2-1.3c-1.7,0-3.6,0.6-5.6,1.8c-2,1.2-3.9,2.7-5.7,4.6c-1.8,1.9-3.3,3.9-4.4,6.1
		c-1.2,2.2-1.7,4.3-1.7,6.3C270.2,78.3,271.5,79.6,274.2,79.6z"/>
	<linearGradient id="SVGID_7_" gradientUnits="userSpaceOnUse" x1="294.9155" y1="67.6123" x2="339.1895" y2="67.6123">
		<stop  offset="0" style="stop-color:#8FB0DE"/>
		<stop  offset="1" style="stop-color:#C097C5"/>
	</linearGradient>
	<path class="st6" d="M299.8,81.9c-0.6,0-1.4-0.1-2.3-0.4c-0.9-0.3-1.8-0.8-2.6-1.6c0.7-0.9,1.7-2.2,3-3.8c1.3-1.6,2.6-3.4,4.1-5.3
		c1.4-1.9,2.8-3.9,4-5.8c-1,1-2.1,2.1-3.3,3.2c-1.2,1.1-2.4,2.2-3.6,3.1c-0.3,0.3-0.5,0.4-0.8,0.4c-0.2,0-0.4-0.1-0.4-0.4
		c0-0.3,0.3-0.7,0.8-1.1c1.8-1.6,3.7-3.4,5.9-5.4c2.2-2,3.7-4.1,4.7-6.3c0.3-0.8,0.5-1.4,0.5-2.1c0-0.8-0.2-1.3-0.5-1.5
		c-0.3-0.2-0.4-0.4-0.4-0.8c0-0.6,0.3-0.8,0.8-0.8c0.3,0,0.6,0.1,0.8,0.2c0.7,0.3,1.3,0.9,2,1.8c0.6,0.9,0.9,2.2,0.9,3.9
		c0,1-0.1,2.1-0.4,3.4c-0.3,1.3-0.7,2.7-1.3,4.4c0.9-1.3,1.9-2.5,2.9-3.7c1-1.2,1.9-2.3,2.7-3.2c1.7-1.9,3.4-3.3,5.1-4.2
		c1.7-0.8,3.3-1.3,4.7-1.3c1.6,0,2.9,0.5,3.9,1.4c1,0.9,1.5,2.2,1.5,3.7c0,1.2-0.3,2.4-0.9,3.7c-0.2,0.5-0.6,1.3-1.3,2.3
		c-0.7,1-1.4,2.1-2.3,3.3c-0.8,1.2-1.6,2.3-2.3,3.2c-0.8,1-1.4,1.9-1.7,2.6c-0.3,0.7-0.5,1.3-0.5,1.7c0,0.6,0.3,0.9,1,0.9
		c0.9,0,2.1-0.5,3.7-1.4c0.9-0.6,2-1.3,3.2-2.3c1.2-1,2.4-2,3.7-3c1.2-1,2.2-1.9,3-2.6c0.3-0.2,0.5-0.4,0.7-0.4
		c0.2,0,0.4,0.2,0.4,0.5c0,0.4-0.2,0.7-0.5,1c-1.9,1.8-4.1,3.7-6.5,5.7c-2.5,2.1-4.9,3.7-7.3,4.8c-1.9,0.9-3.7,1.4-5.4,1.4
		c-1.4,0-2.5-0.4-3.3-1.1c-0.8-0.7-1.2-1.8-1.2-3.1c0-1,0.3-2.2,0.8-3.6c0.6-1.7,1.5-3.4,2.7-5.1c1.2-1.7,2.4-3.3,3.7-4.8
		c1.3-1.5,2.4-2.8,3.3-3.9c0.8-0.9,1.2-1.6,1.2-2.3c0-0.6-0.4-0.8-1.1-0.8s-1.9,0.4-3.3,1.3c-1.5,0.8-3.1,2.2-4.9,4.1
		c-2.6,2.7-4.8,5.6-6.8,8.7c-1.9,3.1-4.2,6.1-6.7,8.8C302.5,81.1,301.1,81.9,299.8,81.9z"/>
	<linearGradient id="SVGID_8_" gradientUnits="userSpaceOnUse" x1="336.3682" y1="60.9383" x2="370.6782" y2="60.9383">
		<stop  offset="0" style="stop-color:#8FB0DE"/>
		<stop  offset="1" style="stop-color:#C097C5"/>
	</linearGradient>
	<path class="st7" d="M343.8,83c-2,0-3.5-0.6-4.6-1.8c-1.1-1.2-1.6-2.9-1.6-5c0-2,0.5-4.4,1.6-7.1l0.2-0.5l-1.7,1.6
		c-0.3,0.3-0.5,0.4-0.8,0.4c-0.3,0-0.5-0.1-0.5-0.4c0-0.3,0.2-0.7,0.7-1.1c1.6-1.4,3.3-3,5-4.6c1.7-1.6,3.2-3.1,4.4-4.6
		c-0.4,0.2-0.9,0.3-1.4,0.3c-0.5,0-0.9-0.1-1.1-0.4c-0.4-0.3-0.7-0.9-0.7-1.7c0-0.7,0.3-1.4,1-2.2c0.7-0.8,2-1.4,4.1-2
		c0.4-0.1,0.9-0.2,1.4-0.3c0.5-0.1,0.9-0.1,1.4-0.2c2-2.8,3.8-5.4,5.3-7.8c1.5-2.4,2.7-4,3.6-4.8c0.4-0.4,1-0.8,2-1.1
		c1-0.3,2-0.6,3.1-0.8c1.1-0.2,2-0.3,2.6-0.3c2.1,0,3.1,0.2,3.1,0.6c0,0.3-0.5,0.8-1.4,1.8c-1.6,1.5-3.4,3.4-5.5,5.6
		c-2.1,2.2-4.2,4.6-6.4,7.2c1.8,0.3,3.5,0.7,5,1.4c1.5,0.7,2.6,1.6,3.3,2.6c0.2,0.3,0.4,0.7,0.4,1.1c0,0.5-0.2,0.8-0.5,0.8
		c-0.3,0-0.5-0.2-0.8-0.5c-1.3-1.3-3.5-2-6.6-2c-0.6,0-1.3,0-1.9,0.1c-0.7,0.1-1.3,0.2-2,0.3c-2.1,2.8-4.1,5.5-5.8,8.3
		c-1.8,2.8-3,5.3-3.8,7.7c-0.4,1.1-0.6,2.2-0.6,3.1c0,0.9,0.2,1.7,0.7,2.3c0.4,0.6,1.1,0.9,2,0.9c0.6,0,1.3-0.2,2.1-0.5
		c1.2-0.4,2.6-1.2,4.1-2.2c1.6-1,3.1-2.2,4.7-3.5c1.6-1.3,3.1-2.6,4.5-3.9c1.4-1.3,2.6-2.3,3.5-3.2c0.9-0.9,1.5-1.4,1.6-1.5
		c0.2-0.2,0.3-0.3,0.5-0.3c0.3,0,0.4,0.2,0.4,0.6c0,0.4-0.2,0.8-0.6,1.2c-0.6,0.6-1.6,1.6-2.9,2.8c-1.3,1.3-2.8,2.6-4.4,4.2
		c-1.7,1.5-3.4,3-5.3,4.4c-1.9,1.4-3.8,2.5-5.7,3.4C347.4,82.6,345.5,83,343.8,83z"/>
	<linearGradient id="SVGID_9_" gradientUnits="userSpaceOnUse" x1="361.8428" y1="68.0354" x2="415.3286" y2="68.0354">
		<stop  offset="0" style="stop-color:#8FB0DE"/>
		<stop  offset="1" style="stop-color:#C097C5"/>
	</linearGradient>
	<path class="st8" d="M370.1,81.5c-2.5,0-4.2-0.5-5.1-1.6c-0.9-1.1-1.3-2.3-1.3-3.7c0-2.1,0.5-3.9,1.5-5.4c1-1.4,2.2-3.1,3.8-4.9
		c-1.3,1.1-2.4,2.1-3.5,3.1c-1.1,1-2,1.7-2.7,2.2c-0.2,0.2-0.4,0.3-0.6,0.3c-0.3,0-0.4-0.1-0.4-0.4c0-0.5,0.4-1.1,1.1-1.7
		c1.6-1.2,3.2-2.6,4.9-4.4c1.7-1.7,3.3-3.4,4.8-4.9c1.5-1.5,2.8-2.6,3.8-3.1c0.7-0.4,1.3-0.6,2-0.8c0.6-0.2,1.2-0.2,1.6-0.2
		c0.7,0,1.2,0.1,1.5,0.3c0.3,0.2,0.4,0.5,0.2,0.7c-1.1,1.1-2.1,2.5-3.2,4.2c-1.1,1.7-2,3.4-2.9,5.2c-0.9,1.8-1.6,3.6-2.1,5.2
		c-0.5,1.7-0.8,3-0.8,4.1c0,1.3,0.4,2,1.3,2c0.7,0,1.5-0.3,2.4-0.9c0.9-0.6,1.8-1.3,2.6-2.1c1-0.9,2.1-2,3.2-3.4s2.3-2.9,3.5-4.4
		c1.2-1.5,2.4-2.9,3.5-4.1c0.9-1.1,1.9-2,3-2.7c1-0.7,2.1-1.1,3.3-1.1c0.9,0,1.5,0.2,2,0.6c0.4,0.4,0.5,0.7,0.3,0.9
		c-1.3,1.3-2.4,2.9-3.4,4.7c-1,1.8-1.8,3.7-2.4,5.5c-0.6,1.8-0.9,3.5-0.9,4.9c0,1.4,0.4,2.1,1.3,2.1c0.7,0,1.5-0.3,2.4-0.9
		c0.9-0.6,1.8-1.3,2.7-2.1c0.9-0.9,1.8-1.8,2.7-2.7c0.8-0.9,1.7-1.9,2.5-2.9c0.1-3.3,0.5-5.9,1.3-8c0.7-2.1,1.6-3.7,2.6-4.7
		c0.4-0.5,1.2-0.9,2.4-1.3c1.2-0.4,2.3-0.6,3.3-0.6c1.2,0,1.8,0.3,1.8,0.9c0,0.3-0.2,0.6-0.6,1.1c-0.7,0.8-1.5,1.9-2.5,3.2
		c-1,1.3-1.9,2.7-2.7,4.1c-0.8,1.4-1.4,2.6-1.7,3.7c-0.3,1-0.4,1.9-0.4,2.7c0,1.2,0.4,1.8,1.2,1.8c0.8,0,1.7-0.5,2.9-1.4
		c0.2-0.2,0.6-0.5,1.1-0.9c0.6-0.4,1.1-0.9,1.7-1.4c0.6-0.5,1-0.9,1.2-1.1c0.3-0.3,0.6-0.5,0.8-0.5s0.3,0.2,0.3,0.5
		c0,0.4-0.1,0.7-0.3,0.8c-0.6,0.6-1.3,1.3-2.3,2.2c-0.9,0.9-1.7,1.5-2.2,1.9c-0.6,0.4-1.3,0.9-2.2,1.3c-0.9,0.4-1.8,0.7-2.6,0.7
		c-0.8,0-1.4-0.3-2-0.8c-0.6-0.5-1-1.3-1.1-2.5c-2.3,2.8-4.8,5.2-7.3,7.4c-2.6,2.2-5,3.2-7.1,3.2c-2.5,0-4.2-0.5-5-1.6
		c-0.8-1.1-1.3-2.3-1.3-3.6c0-0.9,0.2-1.9,0.5-3c-2.1,2.3-4.2,4.2-6.3,5.8C373.9,80.7,371.9,81.5,370.1,81.5z"/>
	<linearGradient id="SVGID_10_" gradientUnits="userSpaceOnUse" x1="407.3384" y1="67.6123" x2="451.6123" y2="67.6123">
		<stop  offset="0" style="stop-color:#8FB0DE"/>
		<stop  offset="1" style="stop-color:#C097C5"/>
	</linearGradient>
	<path class="st9" d="M412.2,81.9c-0.6,0-1.4-0.1-2.3-0.4c-0.9-0.3-1.8-0.8-2.6-1.6c0.7-0.9,1.7-2.2,3-3.8c1.3-1.6,2.6-3.4,4.1-5.3
		c1.4-1.9,2.8-3.9,4-5.8c-1,1-2.1,2.1-3.3,3.2c-1.2,1.1-2.4,2.2-3.6,3.1c-0.3,0.3-0.5,0.4-0.8,0.4c-0.2,0-0.4-0.1-0.4-0.4
		c0-0.3,0.3-0.7,0.8-1.1c1.8-1.6,3.7-3.4,5.9-5.4c2.2-2,3.7-4.1,4.7-6.3c0.3-0.8,0.5-1.4,0.5-2.1c0-0.8-0.2-1.3-0.5-1.5
		c-0.3-0.2-0.4-0.4-0.4-0.8c0-0.6,0.3-0.8,0.8-0.8c0.3,0,0.6,0.1,0.8,0.2c0.7,0.3,1.3,0.9,2,1.8c0.6,0.9,0.9,2.2,0.9,3.9
		c0,1-0.1,2.1-0.4,3.4c-0.3,1.3-0.7,2.7-1.3,4.4c0.9-1.3,1.9-2.5,2.9-3.7c1-1.2,1.9-2.3,2.7-3.2c1.7-1.9,3.4-3.3,5.1-4.2
		c1.7-0.8,3.3-1.3,4.7-1.3c1.6,0,2.9,0.5,3.9,1.4c1,0.9,1.5,2.2,1.5,3.7c0,1.2-0.3,2.4-0.9,3.7c-0.2,0.5-0.6,1.3-1.3,2.3
		c-0.7,1-1.4,2.1-2.3,3.3c-0.8,1.2-1.6,2.3-2.3,3.2c-0.8,1-1.4,1.9-1.7,2.6c-0.3,0.7-0.5,1.3-0.5,1.7c0,0.6,0.3,0.9,1,0.9
		c0.9,0,2.1-0.5,3.7-1.4c0.9-0.6,2-1.3,3.2-2.3c1.2-1,2.4-2,3.7-3c1.2-1,2.2-1.9,3-2.6c0.3-0.2,0.5-0.4,0.7-0.4
		c0.2,0,0.4,0.2,0.4,0.5c0,0.4-0.2,0.7-0.5,1c-1.9,1.8-4.1,3.7-6.5,5.7c-2.5,2.1-4.9,3.7-7.3,4.8c-1.9,0.9-3.7,1.4-5.4,1.4
		c-1.4,0-2.5-0.4-3.3-1.1c-0.8-0.7-1.2-1.8-1.2-3.1c0-1,0.3-2.2,0.8-3.6c0.6-1.7,1.5-3.4,2.7-5.1c1.2-1.7,2.4-3.3,3.7-4.8
		c1.3-1.5,2.4-2.8,3.3-3.9c0.8-0.9,1.2-1.6,1.2-2.3c0-0.6-0.4-0.8-1.1-0.8s-1.9,0.4-3.3,1.3c-1.5,0.8-3.1,2.2-4.9,4.1
		c-2.6,2.7-4.8,5.6-6.8,8.7c-1.9,3.1-4.2,6.1-6.7,8.8C414.9,81.1,413.5,81.9,412.2,81.9z"/>
	<linearGradient id="SVGID_11_" gradientUnits="userSpaceOnUse" x1="447.9453" y1="62.1319" x2="505.1914" y2="62.1319">
		<stop  offset="0" style="stop-color:#8FB0DE"/>
		<stop  offset="1" style="stop-color:#C097C5"/>
	</linearGradient>
	<path class="st10" d="M476.5,89.7c-1-0.9-1.7-2-2.2-3.3c-0.5-1.3-0.7-2.9-0.7-4.6c0-1.6,0.2-3.2,0.5-5c0.3-1.8,0.8-3.6,1.4-5.5
		c-1.2,1.5-2.5,3-4,4.6c-1.5,1.6-2.9,2.9-4.2,4c-2.6,2.1-5.5,3.2-8.6,3.2c-2.3,0-4.3-0.7-5.9-2.2c-1.6-1.5-2.4-3.8-2.4-6.9
		c0-0.8,0.1-1.6,0.2-2.4c0.2-0.8,0.4-1.5,0.6-2.3c-0.4,0.3-0.7,0.6-1.1,0.9c-0.3,0.3-0.7,0.6-1,0.8c-0.2,0.2-0.5,0.3-0.8,0.3
		c-0.3,0-0.5-0.2-0.5-0.5c0-0.4,0.3-0.8,0.9-1.3c0.8-0.7,1.7-1.6,2.8-2.8c1-1.2,2.2-2.5,3.4-3.9c2.2-2.4,4.9-4.4,8-5.9
		c3.2-1.5,6.3-2.3,9.4-2.3c2.6,0,4.6,0.5,5.8,1.4s1.8,2.1,1.8,3.4c1.6-3.3,3.2-6.5,4.9-9.5c1.7-3,3.4-5.7,4.9-8
		c1.5-2.3,2.8-4,3.8-5.2c0.7-0.8,1.6-1.4,2.6-1.8c1-0.4,2.1-0.6,3.1-0.6c1.1,0,2.1,0.2,3.1,0.5c1,0.3,1.9,0.8,2.6,1.5
		c-0.6,0.4-1.6,1.3-3,2.7c-1.3,1.4-2.9,3.1-4.6,5.2c-1.7,2.1-3.5,4.3-5.4,6.7c-1.8,2.4-3.6,4.8-5.2,7.1c-1.9,2.8-3.8,5.9-5.5,9.1
		c-1.7,3.3-3.1,6.4-4.2,9.4c-1.1,3-1.6,5.7-1.6,8c0,1.9,0.4,3.3,1.2,4.3c0.2,0.2,0.2,0.4,0,0.5C476.8,89.7,476.6,89.8,476.5,89.7z
		 M461.7,79.9c1.1,0,2.6-0.6,4.5-1.7c1.9-1.2,4.2-3.1,7-6c0.9-0.9,1.6-1.6,2.1-2.3c0.5-0.7,1-1.3,1.4-1.9c0.3-0.9,0.6-1.7,0.9-2.5
		c0.3-0.8,0.7-1.6,1-2.4c-0.4,0.3-0.7,0.4-0.8,0.4c-0.5,0-0.8-0.3-0.8-0.8c0-0.2,0.1-0.6,0.3-0.9c0.6-1.1,0.9-2,0.9-2.8
		c0-1.3-0.8-2-2.3-2c-0.8,0-1.9,0.3-3.3,0.8c-1.6,0.6-3.2,1.6-4.8,2.9c-1.7,1.3-3.2,2.8-4.6,4.5c-1.4,1.7-2.5,3.5-3.4,5.3
		c-0.8,1.8-1.3,3.5-1.3,5.2c0,1.2,0.2,2.2,0.7,3.1C459.7,79.5,460.5,79.9,461.7,79.9z"/>
</g>
</svg>
