<svg id="科技-线框" xmlns="http://www.w3.org/2000/svg" xmlns:xlink="http://www.w3.org/1999/xlink" viewBox="0 0 1802 1146.53"><defs><style>.cls-1{fill:url(#linear-gradient);}.cls-2{fill:#fff;}</style><linearGradient id="linear-gradient" x1="1808.5" y1="578.24" x2="6.5" y2="578.24" gradientUnits="userSpaceOnUse"><stop offset="0" stop-color="#561ad9"/><stop offset="0" stop-color="#662cdd"/><stop offset="0.25" stop-color="#c394f2"/><stop offset="0.5" stop-color="#8836bf"/><stop offset="0.75" stop-color="#934ea6"/><stop offset="1" stop-color="#f1c2f2"/></linearGradient></defs><path class="cls-1" d="M1808.5,620.66h-6.87V476h3.92v-44.6h-3.92V5L146.92,8.25h-2L6.5,161.55v990H1657.34l142.85-158.23,1.44-1.6V676.14h6.87Zm-155.23,520H369c-9.08-8.79-36.5-35.27-37.37-35.27H104.78l-48.61-53.84V820.36L16.32,776.22V166.05L149,19.12l1294.67-2.56c11.14,10.77,33.14,31.93,33.92,31.93h226.85L1753,102.34V333.49l38.79,43v54.93h-13.75V476h13.75V643.51H1780V765.34h11.79V987.17Z" transform="translate(-6.5 -4.97)"/><path class="cls-2" d="M1751.45,102l-48.61-53.84H1476c-.78,0-22.78-21.17-33.93-31.94L147.4,18.77,14.76,165.7V775.86L54.61,820v231.15l48.6,53.85H330.06c.87,0,28.29,26.48,37.37,35.27H1651.71l138.53-153.46V765h-11.78V643.15h11.78V475.64h-13.75V431h13.75V376.1l-38.79-43Z" transform="translate(-6.5 -4.97)"/></svg>