<svg id="科技-线框" xmlns="http://www.w3.org/2000/svg" xmlns:xlink="http://www.w3.org/1999/xlink" viewBox="0 0 1802 1035.05"><defs><style>.cls-1{fill:url(#linear-gradient);}.cls-2{fill:#fff;}</style><linearGradient id="linear-gradient" x1="1808.5" y1="522.5" x2="6.5" y2="522.5" gradientUnits="userSpaceOnUse"><stop offset="0" stop-color="#561ad9"/><stop offset="0" stop-color="#662cdd"/><stop offset="0.25" stop-color="#c394f2"/><stop offset="0.5" stop-color="#8836bf"/><stop offset="0.75" stop-color="#934ea6"/><stop offset="1" stop-color="#f1c2f2"/></linearGradient></defs><path class="cls-1" d="M1808.5,560.8h-6.87V430.2h3.92V389.93h-3.92V5l-1654.71,3h-2L6.5,146.32V1040H1657.34l142.85-142.85,1.44-1.44V610.89h6.87Zm-155.23,469.41H369c-9.08-7.94-36.5-31.84-37.37-31.84H104.78L56.17,949.76V741.08L16.32,701.23V150.39L149,17.74l1294.67-2.31c11.14,9.72,33.14,28.83,33.92,28.83h226.85L1753,92.87V301.55l38.79,38.79v49.59h-13.75V430.2h13.75V581.43H1780v110h11.79V891.67Z" transform="translate(-6.5 -4.97)"/><path class="cls-2" d="M1751.45,92.55l-48.61-48.61H1476c-.78,0-22.78-19.11-33.93-28.83L147.4,17.42,14.76,150.07V700.91l39.85,39.85V949.44l48.6,48.61H330.06c.87,0,28.29,23.9,37.37,31.84H1651.71l138.53-138.54V691.09h-11.78v-110h11.78V429.88h-13.75V389.61h13.75V340l-38.79-38.79Z" transform="translate(-6.5 -4.97)"/></svg>